<svg xmlns="http://www.w3.org/2000/svg" width="32.676" height="38.718" viewBox="0 0 32.676 38.718">
  <g id="グループ_83" data-name="グループ 83" transform="translate(-930.176 -183.146)">
    <path id="パス_54" data-name="パス 54" d="M10.824-7.74c0-1.164.024-1.644.024-1.716s-.012-.1-.1-.1c-.06,0-.372.024-1.3.024H7.9c-.936,0-1.236-.024-1.3-.024-.1,0-.108.012-.108.1s.024.3.024,1.032v1.416c0,.744-.024.972-.024,1.032,0,.084.012.1.108.1.06,0,.36-.024,1.3-.024h2.22V-.588c0,.48-.108.576-.636.576A7.411,7.411,0,0,1,8.6-.06,1.793,1.793,0,0,1,8.82.468C8.88.7,8.88.7,9.1.7c.96,0,1.224-.048,1.452-.24s.312-.384.312-.912c0-.456-.036-1.08-.036-1.836Zm-.708,1.26H7.2v-.96h2.916Zm0-1.536H7.2V-8.94h2.916ZM5.34-8.352c0-.732.024-1.032.024-1.1s-.012-.1-.1-.1c-.06,0-.36.024-1.2.024H2.628c-.888,0-1.284-.024-1.356-.024s-.1.012-.1.1.024.8.024,2.52v5.208C1.2-.012,1.176.7,1.176.768s.012.1.1.1h.564c.084,0,.1-.012.1-.1s-.024-.78-.024-2.5V-5.9h2.16c.84,0,1.14.024,1.2.024.084,0,.1-.012.1-.1,0-.06-.024-.36-.024-1.1ZM4.656-6.48H1.908v-.96H4.656Zm0-1.536H1.908V-8.94H4.656Zm4.5,3.888c0-.084-.012-.1-.1-.1-.06,0-.432.024-1.584.024H7.092a2.759,2.759,0,0,1,.072-.876.512.512,0,0,0,.072-.216c0-.048-.048-.1-.144-.108a6.3,6.3,0,0,0-.732-.072A8.985,8.985,0,0,1,6.432-4.2h-1.8c-1.152,0-1.524-.024-1.584-.024-.084,0-.1.012-.1.1v.456c0,.084.012.084.1.084.06,0,.432-.012,1.584-.012H6A8.384,8.384,0,0,1,2.52-.972,1.276,1.276,0,0,1,2.856-.6c.072.108.1.156.144.156a.766.766,0,0,0,.18-.072A8.49,8.49,0,0,0,6.48-3.3v1L6.492-.78c0,.336-.084.456-.576.456A8.708,8.708,0,0,1,5.028-.36a1.841,1.841,0,0,1,.2.468c.06.228.06.228.276.228C6.4.336,6.744.264,6.924.108a.827.827,0,0,0,.252-.732c0-.348-.024-.924-.036-1.68L7.116-3.6h.36c1.152,0,1.524.024,1.584.024.084,0,.1-.012.1-.1ZM15.2-9.24a6.607,6.607,0,0,1,.1,1.812c-.06,1.692-.168,3.648-.168,5.352,0,1.764.732,2.412,2.088,2.412A6.679,6.679,0,0,0,21.792-1.68c.108-.1.144-.156.144-.228a.611.611,0,0,0-.048-.168,2.84,2.84,0,0,1-.2-.7A6.167,6.167,0,0,1,17.364-.48c-1.044,0-1.416-.372-1.416-1.836,0-1.62.072-3.216.18-5.028a6.838,6.838,0,0,1,.144-1.236.916.916,0,0,0,.1-.312c0-.084-.06-.144-.192-.18A4.767,4.767,0,0,0,15.2-9.24ZM19.476-7.9A5.181,5.181,0,0,1,20.868-6.36a.1.1,0,0,0,.156.024l.348-.288a.087.087,0,0,0,.024-.132A5.823,5.823,0,0,0,20.04-8.208c-.048-.036-.072-.048-.12-.012Zm1.056-.8a5.732,5.732,0,0,1,1.38,1.5c.048.072.1.072.144.024l.324-.288c.06-.048.072-.084.036-.144a6.9,6.9,0,0,0-1.368-1.4c-.048-.036-.084-.024-.132.012ZM28.44-4.536c1.2-1.224,2-2.064,3.072-3.192a1.3,1.3,0,0,1,.564-.42.249.249,0,0,0,.18-.228.324.324,0,0,0-.084-.2,2.957,2.957,0,0,0-.516-.5.36.36,0,0,0-.216-.1.37.37,0,0,0-.168.084,1.253,1.253,0,0,1-.372.108c-1.056.2-2.04.336-2.988.432a4.473,4.473,0,0,1-1.056-.012,3.8,3.8,0,0,0,.288.828.212.212,0,0,0,.192.144.713.713,0,0,0,.228-.06,1.947,1.947,0,0,1,.42-.108c1.068-.2,2-.384,3-.54-.924,1.092-1.644,1.86-2.34,2.616a32.675,32.675,0,0,1-2.712,2.676c-.084.072-.1.12-.048.18a5.535,5.535,0,0,0,.444.48c.084.084.144.072.24-.024a11.534,11.534,0,0,1,1.056-.984,5.528,5.528,0,0,1,3.3-1.356A1.944,1.944,0,0,1,33-2.748,2.213,2.213,0,0,1,31.248-.564a2.032,2.032,0,0,0-2.04-1.716,1.309,1.309,0,0,0-1.4,1.224c0,.768.648,1.416,2.088,1.416,2.544,0,3.96-1.3,3.96-3.084a2.548,2.548,0,0,0-2.8-2.628,4.685,4.685,0,0,0-2.58.852ZM30.516-.4a4.354,4.354,0,0,1-.78.06c-.8,0-1.236-.336-1.236-.732,0-.372.348-.564.732-.564A1.392,1.392,0,0,1,30.516-.4Z" transform="translate(929 221)" fill="#2c4680"/>
    <path id="線_35" data-name="線 35" d="M19.646,20.354l-20-20L.354-.354l20,20Z" transform="translate(936.5 183.5)" fill="#001e62"/>
    <path id="線_36" data-name="線 36" d="M19.646,20.354l-20-20L.354-.354l20,20Z" transform="translate(956.5 183.5) rotate(90)" fill="#001e62"/>
  </g>
</svg>
