<svg xmlns="http://www.w3.org/2000/svg" width="212.256" height="16.47" viewBox="0 0 212.256 16.47">
  <path id="kv_description_txt_point" d="M14.742,3.742A17.066,17.066,0,0,0,13.3,1.276l-1.062.36a16.4,16.4,0,0,1,1.4,2.43Zm-.018-2.628a16.456,16.456,0,0,1,1.44,2.5l1.1-.324A15.42,15.42,0,0,0,15.768.772ZM6.444,1.6c-.162,1.35-.2,1.62-.522,3.384-1.4.162-1.566.18-3.816.5L2.214,6.64c.666-.144,2.394-.432,3.492-.576-1.188,4.59-2.124,7.02-3.6,9.432l1.134.864A42.39,42.39,0,0,0,6.894,5.938,18.472,18.472,0,0,1,8.856,5.83a2.045,2.045,0,0,1,1.566.468c.378.36.5.846.5,1.98a20.436,20.436,0,0,1-.7,5.526c-.234.756-.612,1.08-1.278,1.08a11.853,11.853,0,0,1-2.538-.378l.306,1.3A13.965,13.965,0,0,0,9,16.09c1.3,0,2.016-.576,2.412-2.016a23.729,23.729,0,0,0,.72-5.94c0-2.376-.9-3.384-3.024-3.384-.594,0-.756.018-2.016.108.234-.99.45-2.124.594-3.15Zm6.462,3.51A16.185,16.185,0,0,1,15.5,12.238l1.26-.4A19.263,19.263,0,0,0,14.04,4.66Zm12.24-3.222L24.8,2.7l-.63,1.548c-1.26,2.988-1.98,4.824-3.294,8.37-.5,1.386-.882,2.412-1.116,3.042l1.116.522a27.96,27.96,0,0,1,1.908-4.68c.882-1.53,2.286-2.646,3.348-2.646.648,0,.972.522.972,1.494,0,.36-.018.648-.108,2-.036.576-.054,1.152-.054,1.386a2.24,2.24,0,0,0,2.484,2.484,3.467,3.467,0,0,0,2.106-.72,5.157,5.157,0,0,0,1.8-2.772A13.78,13.78,0,0,0,34.02,9.5c.018-.108.09-.486.144-.9l-1.188-.378c-.288,2.9-.576,4.212-1.152,5.2A3.048,3.048,0,0,1,29.448,15.1c-.846,0-1.278-.468-1.278-1.386,0-.414.018-.774.054-1.71.018-.666.036-1.152.036-1.548,0-1.89-.648-2.754-2.052-2.754-1.134,0-1.818.432-3.024,1.89A62.141,62.141,0,0,1,26.37,2.356ZM45.45,15.91a9.541,9.541,0,0,0,4.518-1.422,5.652,5.652,0,0,0,2.394-4.932A6.671,6.671,0,0,0,50.706,5a6.478,6.478,0,0,0-5.058-2.034c-4.7,0-8.064,3.078-8.064,7.362,0,2.826,1.494,4.878,3.582,4.878,1.368,0,2.25-.936,3.114-3.384a34.992,34.992,0,0,0,1.692-7.776A5.285,5.285,0,0,1,49.5,5.434a5.231,5.231,0,0,1,1.62,4.05c0,3.258-1.908,4.878-6.174,5.274ZM44.766,4.1a33.758,33.758,0,0,1-.972,5.328c-.846,3.168-1.674,4.608-2.646,4.608-1.332,0-2.358-1.692-2.358-3.906a5.531,5.531,0,0,1,2.178-4.518A6.315,6.315,0,0,1,44.766,4.1ZM56.358,2.194V9.376a13.235,13.235,0,0,1-1.53,6.534l.828.99a16.482,16.482,0,0,0,1.8-8.226V3.22h5.6a14.506,14.506,0,0,1-.342,1.62H58.95V11H63.7V15.37c0,.414-.126.54-.594.54-.45,0-.9-.036-1.908-.126l.414,1.188c.558.036.81.036,1.17.036,1.62,0,2-.234,2-1.242V11h4.572V4.84H63.738a14.348,14.348,0,0,0,.414-1.62h6.12V2.194Zm3.636,7.812V8.278h8.28v1.728Zm0-2.664V5.812h8.28v1.53Zm.486,4.374a9.1,9.1,0,0,1-2.988,3.87l.9.774a11.473,11.473,0,0,0,3.2-4.374Zm6.318.36a20.6,20.6,0,0,0,3.06,3.8l.9-.72a19.456,19.456,0,0,1-3.024-3.546Zm9.594,2.682c2.754-1.656,4.284-3.636,4.626-6.03a9.571,9.571,0,0,0,4.356,5.8l.864-.792a9.338,9.338,0,0,1-4.7-6.606h4.626V6.082h-4.7V3.67h-1.08V6.118H75.816V7.126h4.5a7.741,7.741,0,0,1-4.68,6.732Zm-2.484,2.214h1.1v-.72H86.994v.666h1.134V2.1H73.908Zm1.1-1.746V3.112H86.994V15.226ZM93.06,2.086a49.645,49.645,0,0,0-.648,8.442c0,2,.072,4.176.18,5.85l1.26-.108c-.18-2.07-.252-3.348-.252-5.094,0-1.71.108-4.338.216-5.508.09-.9.162-1.386.468-3.51ZM95.328,6.28l1.134-.036,1.89-.036,2.178-.018.99-.018.018,1.134.036,1.62.018,1.566c.018.144.018.5.018,1.08a8.041,8.041,0,0,0-2.646-.486c-1.746,0-3.042,1.008-3.042,2.394,0,1.53,1.44,2.574,3.546,2.574a4.133,4.133,0,0,0,2.61-.756,2.37,2.37,0,0,0,.756-2,17.949,17.949,0,0,1,2.934,2.07l.738-1.062a18.97,18.97,0,0,0-3.672-2.214c0-.5,0-.864-.018-.972L102.8,9.754c-.018-.936-.036-1.512-.054-3.618l.684-.018,1.278-.018,1.044-.036.684-.018V4.84c-1.6.108-2.628.162-3.708.2-.018-.738-.018-1.26-.018-1.656,0-.342,0-.72.018-1.4h-1.332c.018.306.036.5.036.612l.036.846c.036,1.1.036,1.1.036,1.224v.4l-1.026.018c-.252,0-.918,0-1.836.018H95.328Zm6.318,6.66c0,.27,0,.378-.018.648-.054.918-.846,1.422-2.25,1.422-1.368,0-2.34-.612-2.34-1.458,0-.828.828-1.4,2-1.4a6.38,6.38,0,0,1,2.61.594Zm7.848,3.78a37.426,37.426,0,0,0,3.078-2.358c1.476,2.088,2.718,2.484,7.434,2.43h2.214c.414,0,.954,0,2.52-.036l.414-1.152c-3.474.108-5.724.162-7.2.162a6.836,6.836,0,0,1-3.1-.5,4.136,4.136,0,0,1-1.818-1.674V7.54h-3.888V8.566h2.808v5.058a26.575,26.575,0,0,1-2.88,2.034Zm.432-14.292A24.416,24.416,0,0,1,112.734,5l.81-.792a17.36,17.36,0,0,0-2.826-2.556ZM113.49,6.46h11.124V5.632H119.5v-.81h4.14V2.248H119.5V1.1h-.936V2.248h-3.978V4.822h3.978v.81H113.49Zm1.98-2.394V3.022h3.1V4.066Zm4.032,0V3.022h3.222V4.066ZM115.326,15.1a13.2,13.2,0,0,0,2.736-1.494l-.72-.684h3.24l-.558.576a17.581,17.581,0,0,0,3.636,1.728l.738-.81a19.663,19.663,0,0,1-3.42-1.494H123.1V7.162H114.93v5.76h2.358a10.811,10.811,0,0,1-2.736,1.368Zm.54-2.988v-.9h6.3v.9Zm0-1.656V9.484h6.3v.972Zm0-1.692V7.936h6.3v.828Zm14.922-7.488A18.607,18.607,0,0,1,126.7,9l.4,1.26a11.613,11.613,0,0,0,1.836-2.3v8.964h1.1V6.208a21.293,21.293,0,0,0,1.854-4.788Zm.288,7.236h3.474a46.026,46.026,0,0,1-1.98,6.66c-.7.018-.81.018-1.494.018l.4,1.17.828-.072c3.834-.252,5.112-.36,8.964-.792.234.63.252.72.45,1.35l1.17-.5a25.388,25.388,0,0,0-3.456-6.714l-1.008.522a23.327,23.327,0,0,1,2.5,4.356c-1.566.234-5.238.558-7.326.63a53.751,53.751,0,0,0,2.16-6.624H142.9V7.432H131.076Zm1.17-5h9.648V2.428h-9.648Zm13.086,6.264h7.254V14.92c0,.81-.018.81-1.224.81-.468,0-.738-.018-1.854-.072l.342,1.17c1.008.072,1.53.108,2,.108,1.548,0,1.872-.288,1.872-1.638V9.772H160.7V8.692H153.72V6.982a47.429,47.429,0,0,0,5.634-3.636V2.41H146.826V3.454h10.512a34.929,34.929,0,0,1-4.752,3.078v2.16h-7.254ZM171.45,15.91a9.541,9.541,0,0,0,4.518-1.422,5.652,5.652,0,0,0,2.394-4.932A6.671,6.671,0,0,0,176.706,5a6.478,6.478,0,0,0-5.058-2.034c-4.7,0-8.064,3.078-8.064,7.362,0,2.826,1.494,4.878,3.582,4.878,1.368,0,2.25-.936,3.114-3.384a34.993,34.993,0,0,0,1.692-7.776A5.285,5.285,0,0,1,175.5,5.434a5.231,5.231,0,0,1,1.62,4.05c0,3.258-1.908,4.878-6.174,5.274ZM170.766,4.1a33.759,33.759,0,0,1-.972,5.328c-.846,3.168-1.674,4.608-2.646,4.608-1.332,0-2.358-1.692-2.358-3.906a5.531,5.531,0,0,1,2.178-4.518A6.315,6.315,0,0,1,170.766,4.1Zm11.088,13.122a14.8,14.8,0,0,0,5.256-2.286l-.864-.63a15.3,15.3,0,0,1-5.148,2.034Zm-.522-3.492h15.282V12.76h-4.32V11h3.726v-.918h-3.726V8.44h3.132V1.87h-12.8V8.44h3.06v1.638h-3.762V11h3.762V12.76h-4.356Zm2.34-6.282V5.578h4.662V7.45Zm0-2.772V2.842h4.662V4.678Zm3.078,8.082V11h4.482V12.76Zm0-2.682V8.44h4.482v1.638Zm2.61-2.628V5.578h5.022V7.45Zm0-2.772V2.842h5.022V4.678Zm1.494,10.278a20.991,20.991,0,0,0,5.22,2.178l.864-.846a23.139,23.139,0,0,1-5.184-2.106Zm8.784-7.272h1.1V5.056h12.528V7.63h1.1V4.066h-3.816a22.256,22.256,0,0,0,1.422-2.142l-1.152-.306a20.31,20.31,0,0,1-1.476,2.448h-1.872V1.24h-1.08V4.066h-1.872a24.973,24.973,0,0,0-1.4-2.3L201.978,2c.45.63.756,1.1,1.386,2.07h-3.726Zm.972,8.514h1.044V12.04h4.734v5.2h1.026v-5.2h4.95v2.61c0,.378-.252.486-1.152.486-.288,0-1.458-.054-2-.09l.324,1.08c.63.036,1.566.054,2.16.054,1.278,0,1.71-.252,1.71-.972V11.05h-5.994V9.826h4.77V6.3h-10.35V9.826h4.554V11.05H200.61Zm2.25-7.29V7.216h8.28V8.908Z" transform="translate(-2.106 -0.772)" fill="#d05210"/>
</svg>
