<svg xmlns="http://www.w3.org/2000/svg" width="358.29" height="208.506" viewBox="0 0 358.29 208.506">
  <path id="kv_description_txt" d="M227.448,6.208a24.807,24.807,0,0,1,1.3,2.43l1.026-.378a23.288,23.288,0,0,0-1.35-2.448Zm2.412-.594a21.885,21.885,0,0,1,1.386,2.52l.972-.36a17.41,17.41,0,0,0-1.4-2.5Zm1.674-2.484c-.594.036-1.044.072-1.242.09l-1.692.09c-.738.054-1.458.108-2.178.144l-.756.036c-1.206.072-2.214.108-3.2.162l-1.116.054c-.63.018-1.116.054-1.422.054-.81.036-1.08.036-2.052.054l.036,1.26,1.62-.108,3.258-.2,2.142-.126,1.116-.072a9.482,9.482,0,0,0-2.538,2.106,5.947,5.947,0,0,0-1.44,3.816,4.714,4.714,0,0,0,2.034,3.96c1.152.828,2.556,1.152,4.842,1.152.324,0,.846-.018,1.6-.054V14.29a17.2,17.2,0,0,1-1.854.09,6.447,6.447,0,0,1-3.87-.882,3.562,3.562,0,0,1-1.548-3.114c0-1.962,1.116-3.654,3.24-4.95,1.386-.846,2.556-1.1,5.022-1.1Zm8.784,4.446a7.205,7.205,0,0,0-2.088,1.152,5.4,5.4,0,0,0-2.43,4.14,2.679,2.679,0,0,0,2.322,2.88,3.328,3.328,0,0,0,1.872-.7,18.728,18.728,0,0,0,2.646-2.034,22.933,22.933,0,0,0,3.744-4.788,3.574,3.574,0,0,1,1.08.666,3.384,3.384,0,0,1,1.386,2.754,3.134,3.134,0,0,1-2.016,2.952,10.65,10.65,0,0,1-3.8.72l.558,1.134a10.653,10.653,0,0,0,3.708-.738,4.334,4.334,0,0,0,2.718-3.96c0-2.934-2.268-4.878-5.724-4.878a12.975,12.975,0,0,0-2.844.342V5.056L242.766,5l1.944-.072,1.656-.072c.666-.018.864-.018,2.286-.054l-.036-1.116-.9.054c-3.492.2-4.446.252-6.264.27,0-.954,0-1.314.054-2.2h-1.278c.036,1.026.036,1.188.054,2.268l-.612.018-1.458.036h-.558c-.63.018-.882.018-1.692.018l.054,1.1c1.116-.054,2.754-.108,4.266-.144.018,1.08.036,1.548.036,1.89Zm.108,4.608c.018.216.018.63.036,1.188a4.374,4.374,0,0,1-2.448,1.242c-.648,0-1.134-.738-1.134-1.728,0-1.548,1.4-3.276,3.456-4.266.036,1.926.036,1.98.036,2.322Zm1.1-1.836-.018-1.206-.018-.918a9.76,9.76,0,0,1,2.682-.36,6.425,6.425,0,0,1,1.062.072,16.66,16.66,0,0,1-3.654,4.518c-.018-.54-.036-1.152-.036-1.152ZM255.942,3.94c1.17-.036,1.4-.036,2.268-.09s1.134-.072,4.068-.234l1.26-.072c-.45.4-.774.666-.918.81l-1.188.972a88.343,88.343,0,0,1-7.146,5.634l.72,1.152c.666-.558.864-.738,2.25-1.89a7.19,7.19,0,0,1,2.106-1.152,8.864,8.864,0,0,1,3.078-.54c2.448,0,3.816,1.134,3.816,3.168a2.974,2.974,0,0,1-1.026,2.322,4.029,4.029,0,0,1-1.728.918,5.289,5.289,0,0,0-1.08-2.3,3.428,3.428,0,0,0-2.646-1.3,2.293,2.293,0,0,0-2.538,2.214c0,1.746,1.458,2.736,4.05,2.736,3.69,0,6.156-1.854,6.156-4.608A3.9,3.9,0,0,0,265.788,8.4a5.439,5.439,0,0,0-3.222-.828,6.887,6.887,0,0,0-2.718.5l.918-.774,1.44-1.206c1.44-1.224,2-1.71,3.2-2.718V2.41c-3.942.234-6.174.324-9.468.378Zm6.426,11.2c-.576.036-.882.054-1.26.054-1.728,0-2.79-.648-2.79-1.692a1.2,1.2,0,0,1,1.332-1.17,2.635,2.635,0,0,1,2.052,1.1A3.316,3.316,0,0,1,262.368,15.136ZM274.446,9.3a6.3,6.3,0,0,0-1.512,3.582,2.511,2.511,0,0,0,.81,1.818,4.318,4.318,0,0,0,2.25.864,31.355,31.355,0,0,0,4.14.252c1.566,0,3.546-.108,5.346-.27l-.108-1.278a48.256,48.256,0,0,1-6.246.378,14.578,14.578,0,0,1-3.8-.414,1.652,1.652,0,0,1-1.206-1.476c0-.828.378-1.584,1.422-2.934Zm9.882-5.8c-2.592.2-4.9.288-6.966.288-.99,0-1.908-.036-3.33-.108l.054,1.224c1.242.054,2.142.072,3.78.072,2.484,0,4.122-.054,6.5-.234Zm10.3-1.674A24.889,24.889,0,0,0,295.7,7.7a13.436,13.436,0,0,0-2.376,1.08c-1.728.99-2.628,2.268-2.628,3.708a3.336,3.336,0,0,0,1.188,2.574c1.026.774,2.718,1.152,5.22,1.152a55.086,55.086,0,0,0,6.12-.378v-1.26a43.314,43.314,0,0,1-6.174.5,10.334,10.334,0,0,1-3.708-.5,2.135,2.135,0,0,1-1.422-2.088A2.7,2.7,0,0,1,292.95,10.4a9.914,9.914,0,0,1,2.592-1.44,29.983,29.983,0,0,1,6.8-1.62L302.292,6.1a50.644,50.644,0,0,0-5.472,1.206,19.565,19.565,0,0,1-.882-5.472Zm26.118,1.908a17.068,17.068,0,0,0-1.44-2.466l-1.062.36a16.4,16.4,0,0,1,1.4,2.43Zm-.018-2.628a16.458,16.458,0,0,1,1.44,2.5l1.1-.324a15.419,15.419,0,0,0-1.494-2.52Zm-8.28.486c-.162,1.35-.2,1.62-.522,3.384-1.4.162-1.566.18-3.816.5l.108,1.152c.666-.144,2.394-.432,3.492-.576-1.188,4.59-2.124,7.02-3.6,9.432l1.134.864a42.39,42.39,0,0,0,3.654-10.422,18.471,18.471,0,0,1,1.962-.108,2.045,2.045,0,0,1,1.566.468c.378.36.5.846.5,1.98a20.436,20.436,0,0,1-.7,5.526c-.234.756-.612,1.08-1.278,1.08a11.853,11.853,0,0,1-2.538-.378l.306,1.3A13.965,13.965,0,0,0,315,16.09c1.3,0,2.016-.576,2.412-2.016a23.729,23.729,0,0,0,.72-5.94c0-2.376-.9-3.384-3.024-3.384-.594,0-.756.018-2.016.108.234-.99.45-2.124.594-3.15Zm6.462,3.51a16.185,16.185,0,0,1,2.592,7.128l1.26-.4A19.263,19.263,0,0,0,320.04,4.66Zm6.8,9.45h1.044V13.3h4.59V2.248H325.71Zm1.044-2.232V8.17H330.3v4.158Zm0-5.094V3.184h3.528v4.05Zm6.75-5.2v7.65a7.858,7.858,0,0,1-.72,3.762,7.59,7.59,0,0,1-3.06,2.718l.954.864c2.3-1.476,3.6-3.258,3.8-5.22h4.59v3.6c0,.432-.126.5-.972.5-.36,0-1.224-.036-1.944-.09l.594,1.17c1.152.036,1.35.036,1.62.036.9,0,1.17-.036,1.386-.18a.976.976,0,0,0,.4-.828V2.032Zm1.08,8.8V7.27h4.482v3.564Zm0-4.536V3.022h4.482V6.3ZM346.05,4.75a56.142,56.142,0,0,1-.63,7.506l1.332.126c1.692-2.52,3.888-3.87,6.228-3.87a2.975,2.975,0,0,1,3.276,2.988c0,1.62-1.206,2.844-3.186,3.258a19.554,19.554,0,0,1-3.8.27c-.756,0-1.224-.018-2.286-.072l.378,1.224A34.283,34.283,0,0,0,352.44,16c3.312-.45,5.022-2,5.022-4.536a3.871,3.871,0,0,0-1.314-2.97,4.284,4.284,0,0,0-3.06-1.1,7.01,7.01,0,0,0-3.132.738,8.786,8.786,0,0,0-3.24,2.646c.18-1.3.252-2.088.5-5.958Zm.54-1.368A38.055,38.055,0,0,1,354.06,4.5l.522-1.152a43.148,43.148,0,0,0-7.6-1.116ZM6.444,33.6c-.162,1.35-.2,1.62-.522,3.384-1.4.162-1.566.18-3.816.5l.108,1.152c.666-.144,2.394-.432,3.492-.576-1.188,4.59-2.124,7.02-3.6,9.432l1.134.864A42.39,42.39,0,0,0,6.894,37.938a18.471,18.471,0,0,1,1.962-.108,2.045,2.045,0,0,1,1.566.468c.378.36.5.846.5,1.98a20.436,20.436,0,0,1-.7,5.526c-.234.756-.612,1.08-1.278,1.08a11.853,11.853,0,0,1-2.538-.378l.306,1.3A13.964,13.964,0,0,0,9,48.09c1.3,0,2.016-.576,2.412-2.016a23.729,23.729,0,0,0,.72-5.94c0-2.376-.9-3.384-3.024-3.384-.594,0-.756.018-2.016.108.234-.99.45-2.124.594-3.15Zm6.174,3.078a16.425,16.425,0,0,1,2.88,7.56l1.26-.4a18.89,18.89,0,0,0-3.06-7.668Zm8.658-2.232a54.563,54.563,0,0,0-.63,8.334c0,1.566.054,3.186.162,5.166l1.3-.072c-.18-1.656-.288-3.87-.306-5.868v-.2a49.333,49.333,0,0,1,.666-7.218ZM25.4,41.052a6.226,6.226,0,0,0-1.35,3.4,2.475,2.475,0,0,0,1.566,2.2,10.251,10.251,0,0,0,4.32.594c1.584,0,2.664-.054,4.068-.18l-.036-1.242a41.886,41.886,0,0,1-4.68.252c-2.844,0-4.032-.54-4.032-1.872,0-.666.288-1.314,1.206-2.7Zm-.774-3.8c3.852-.054,4.842-.09,8.55-.234V35.814c-.828.018-.936.036-1.368.054-1.062.054-1.782.072-2.2.09-1.782.054-2.7.072-4.986.072Zm21.222-.378a18.784,18.784,0,0,1,5.8,1.458l.18-1.224A20.954,20.954,0,0,0,46.008,35.8Zm-7.758.756c.576-.018.738-.018,2.826-.126a30.346,30.346,0,0,1-3.276,8.262l1.152.648A41.229,41.229,0,0,0,42.1,37.452c1.476-.126,1.818-.144,2.844-.252l-.072-1.206c-.9.126-1.242.162-2.484.288.234-1.008.324-1.4.486-2.3l-1.242-.108c-.09.63-.216,1.386-.45,2.5-1.062.036-1.548.054-2.9.054h-.252Zm10.836,1.44-1.17.036.018.162.018.306.09,1.458.108,1.53c0,.126.018.468.054.972a7.6,7.6,0,0,0-2.484-.432c-2,0-3.294,1.044-3.294,2.628a2.343,2.343,0,0,0,1.08,2,4.088,4.088,0,0,0,2.358.558,4.077,4.077,0,0,0,2.664-.684,2.567,2.567,0,0,0,.864-2.3,13.145,13.145,0,0,1,2.556,1.872l.666-1.1-.2-.144A17.159,17.159,0,0,0,49.212,44c-.036-.576-.054-1.152-.072-1.332,0-.288-.054-1.044-.126-2.142l-.054-1.008Zm-.846,5.688a5.3,5.3,0,0,1-.108,1.314c-.216.684-.99,1.08-2.124,1.08-1.566,0-2.412-.522-2.412-1.494,0-.9.792-1.494,1.962-1.494A6.733,6.733,0,0,1,48.078,44.76Zm11.718,2.9a25.1,25.1,0,0,0,4.248-.414c3.06-.612,4.878-2.466,4.878-5s-1.818-4.212-4.59-4.212c-1.368,0-2,.09-6.552.99l-.576.108-.288.054.27,1.206a30.727,30.727,0,0,1,6.84-1.26,5.253,5.253,0,0,1,2.07.342,3.071,3.071,0,0,1,1.71,2.826c0,1.818-1.152,3.078-3.384,3.708a17.916,17.916,0,0,1-4.752.486h-.306ZM87.534,35.13c-.594.036-1.044.072-1.242.09l-1.692.09c-.738.054-1.458.108-2.178.144l-.756.036c-1.206.072-2.214.108-3.2.162l-1.116.054c-.63.018-1.116.054-1.422.054-.81.036-1.08.036-2.052.054l.036,1.26,1.62-.108,3.258-.2,2.142-.126,1.116-.072a9.482,9.482,0,0,0-2.538,2.106,5.947,5.947,0,0,0-1.44,3.816,4.714,4.714,0,0,0,2.034,3.96c1.152.828,2.556,1.152,4.842,1.152.324,0,.846-.018,1.6-.054V46.29a17.2,17.2,0,0,1-1.854.09,6.447,6.447,0,0,1-3.87-.882,3.562,3.562,0,0,1-1.548-3.114c0-1.962,1.116-3.654,3.24-4.95,1.386-.846,2.556-1.1,5.022-1.1Zm11.34,1.764.342.828c.216.576.36.918.414,1.044.072.162.108.234.162.378l-.342.018c-2.286.144-4.23.252-5.832.306l-1.3.036.09,1.116.936-.054,1.98-.108,2.178-.126c1.224-.072,1.89-.108,1.98-.126.126,0,.378-.018.774-.054a33.086,33.086,0,0,0,1.764,3.258,9.1,9.1,0,0,0-4.536-.99c-2.682,0-4.374,1.08-4.374,2.79a3.2,3.2,0,0,0,2.538,2.934,13.881,13.881,0,0,0,3.8.45,38.575,38.575,0,0,0,4.158-.324V47.028a26.386,26.386,0,0,1-4.374.45c-3.168,0-4.932-.792-4.932-2.214,0-1.134,1.188-1.836,3.132-1.836a11.785,11.785,0,0,1,5.346,1.314l1.008-.666a33.722,33.722,0,0,1-2.286-4l1.188-.09,1.17-.072,1.332-.09.792-.054-.09-1.1c-.954.108-2.232.216-4.392.36l-.468.036c-.072-.162-.144-.324-.252-.576l-.666-1.638L100.1,36.8l.36-.018.36-.036q1.836-.135,2.376-.162c.558-.054,1.134-.108,1.692-.144l-.108-1.062c-1.008.108-1.1.108-2.538.216-.594.036-.774.054-2.052.144l-.486.036c-.324-.936-.558-1.6-.738-2.232l-1.26.18c.414,1.188.558,1.584.774,2.142l-.45.036c-.954.09-2.394.144-4.914.216l.108,1.1c2.322-.108,3.168-.144,5.13-.288Zm11.394,3.78c.72-.018,1.386-.018,1.4-.018l2.052-.036,1.944-.036,1.224-.018.036,2.736a8.226,8.226,0,0,0-2-.234c-2.286,0-3.87,1.044-3.87,2.592a2.605,2.605,0,0,0,1.278,2.124,5.241,5.241,0,0,0,2.43.5c1.458,0,2.448-.324,2.916-.954.378-.5.432-.864.432-2.646a17.923,17.923,0,0,1,4.842,2.628l.864-.954a19.985,19.985,0,0,0-5.742-2.808l-.036-2.988c2.7-.036,3.456-.054,5.814-.144v-1.08l-.9.036c-3.582.09-3.6.09-4.914.108V37l.846-.018,1.566-.018,1.746-.036.828-.036V35.76c-.45.018-.738.018-.882.018l-1.638.054-1.584.036c-.09,0-.432,0-.918.018l-.036-2.106H116.8l.036,2.124h-1.026l-1.782.018-1.926.018h-1.116v1.17l1.134-.018c.27,0,.99-.018,1.746-.036l1.908-.036L116.892,37v2.5l-1.188.018-2.412.018h-3.024Zm6.7,4.194a3.971,3.971,0,0,1-.252,1.692c-.252.432-.936.648-2.088.648-1.566,0-2.394-.5-2.394-1.458,0-1.008.972-1.62,2.556-1.62a11.923,11.923,0,0,1,2.16.234s0,.072.018.252ZM130.212,34.3v9.81a3.81,3.81,0,0,0,.936,2.718,4.378,4.378,0,0,0,3.348,1.332,7.128,7.128,0,0,0,4.9-1.6c1.242-1.116,1.692-2.322,2.016-5.346l-1.278-.432a7.85,7.85,0,0,1-.954,4.086,5.011,5.011,0,0,1-4.392,2.034c-2.106,0-3.294-1.062-3.294-2.934V34.3ZM146,37.722c1.224-.054,1.6-.072,3.06-.09a40.262,40.262,0,0,1-3.132,9.828l1.224.522A55.367,55.367,0,0,0,150.282,37.6l.648-.018,1.116-.054.666-.018v-1.17c-.594.036-.792.054-1.548.09-.108.018-.378.018-.684.036.18-.882.216-1.08.45-2.628l-1.3-.09c-.09.954-.234,2-.36,2.772h-.558c-1.71.054-1.8.054-2.07.054h-.72Zm6.156,4.806a5.9,5.9,0,0,0-.99,2.754,2.15,2.15,0,0,0,1.44,2.106,12.621,12.621,0,0,0,4.14.5,28.6,28.6,0,0,0,3.618-.216V46.452a26.249,26.249,0,0,1-3.636.27c-3.15,0-4.374-.45-4.374-1.62a4.561,4.561,0,0,1,.972-2.466Zm1.674-3.816c1.314-.018,1.4-.018,1.8-.018,1.044,0,2.556.054,3.8.144l.036-1.224c-1.35-.09-2.556-.126-3.456-.126-.522,0-1.188.018-2.142.054Zm12.006,5.4a2.187,2.187,0,1,1-2.16,2.178A2.193,2.193,0,0,1,165.834,44.112Zm.072-.792a2.979,2.979,0,1,0,2.934,2.97A2.981,2.981,0,0,0,165.906,43.32ZM2.358,66.194v7.182A13.235,13.235,0,0,1,.828,79.91l.828.99a16.482,16.482,0,0,0,1.8-8.226V67.22h5.6a14.507,14.507,0,0,1-.342,1.62H4.95V75H9.7V79.37c0,.414-.126.54-.594.54-.45,0-.9-.036-1.908-.126l.414,1.188c.558.036.81.036,1.17.036,1.62,0,2-.234,2-1.242V75h4.572V68.84H9.738a14.347,14.347,0,0,0,.414-1.62h6.12V66.194Zm3.636,7.812V72.278h8.28v1.728Zm0-2.664v-1.53h8.28v1.53Zm.486,4.374a9.1,9.1,0,0,1-2.988,3.87l.9.774a11.473,11.473,0,0,0,3.2-4.374Zm6.318.36a20.6,20.6,0,0,0,3.06,3.8l.9-.72a19.456,19.456,0,0,1-3.024-3.546Zm9.594,2.682c2.754-1.656,4.284-3.636,4.626-6.03a9.571,9.571,0,0,0,4.356,5.8l.864-.792a9.338,9.338,0,0,1-4.7-6.606h4.626V70.082h-4.7V67.67h-1.08v2.448H21.816v1.008h4.5a7.741,7.741,0,0,1-4.68,6.732Zm-2.484,2.214h1.1v-.72H32.994v.666h1.134V66.1H19.908Zm1.1-1.746V67.112H32.994V79.226ZM42.624,65.834A24.889,24.889,0,0,0,43.7,71.7a13.437,13.437,0,0,0-2.376,1.08C39.6,73.772,38.7,75.05,38.7,76.49a3.336,3.336,0,0,0,1.188,2.574c1.026.774,2.718,1.152,5.22,1.152a55.086,55.086,0,0,0,6.12-.378v-1.26a43.314,43.314,0,0,1-6.174.5,10.334,10.334,0,0,1-3.708-.5,2.135,2.135,0,0,1-1.422-2.088A2.7,2.7,0,0,1,40.95,74.4a9.914,9.914,0,0,1,2.592-1.44,29.983,29.983,0,0,1,6.8-1.62L50.292,70.1a50.645,50.645,0,0,0-5.472,1.206,19.565,19.565,0,0,1-.882-5.472Zm21.222,3.042a18.784,18.784,0,0,1,5.8,1.458l.18-1.224A20.954,20.954,0,0,0,64.008,67.8Zm-7.758.756c.576-.018.738-.018,2.826-.126a30.346,30.346,0,0,1-3.276,8.262l1.152.648A41.229,41.229,0,0,0,60.1,69.452c1.476-.126,1.818-.144,2.844-.252l-.072-1.206c-.9.126-1.242.162-2.484.288.234-1.008.324-1.4.486-2.3l-1.242-.108c-.09.63-.216,1.386-.45,2.5-1.062.036-1.548.054-2.9.054h-.252Zm10.836,1.44-1.17.036.018.162.018.306.09,1.458.108,1.53c0,.126.018.468.054.972a7.6,7.6,0,0,0-2.484-.432c-2,0-3.294,1.044-3.294,2.628a2.343,2.343,0,0,0,1.08,2,4.088,4.088,0,0,0,2.358.558,4.077,4.077,0,0,0,2.664-.684,2.567,2.567,0,0,0,.864-2.3,13.145,13.145,0,0,1,2.556,1.872l.666-1.1-.2-.144A17.159,17.159,0,0,0,67.212,76c-.036-.576-.054-1.152-.072-1.332,0-.288-.054-1.044-.126-2.142l-.054-1.008Zm-.846,5.688a5.3,5.3,0,0,1-.108,1.314c-.216.684-.99,1.08-2.124,1.08-1.566,0-2.412-.522-2.412-1.494,0-.9.792-1.494,1.962-1.494A6.733,6.733,0,0,1,66.078,76.76Zm9.864-8.82c1.17-.036,1.4-.036,2.268-.09s1.134-.072,4.068-.234l1.26-.072c-.45.4-.774.666-.918.81l-1.188.972a88.345,88.345,0,0,1-7.146,5.634l.72,1.152c.666-.558.864-.738,2.25-1.89a7.19,7.19,0,0,1,2.106-1.152,8.864,8.864,0,0,1,3.078-.54c2.448,0,3.816,1.134,3.816,3.168A2.974,2.974,0,0,1,85.23,78.02a4.029,4.029,0,0,1-1.728.918,5.288,5.288,0,0,0-1.08-2.3,3.428,3.428,0,0,0-2.646-1.3,2.293,2.293,0,0,0-2.538,2.214c0,1.746,1.458,2.736,4.05,2.736,3.69,0,6.156-1.854,6.156-4.608A3.9,3.9,0,0,0,85.788,72.4a5.439,5.439,0,0,0-3.222-.828,6.887,6.887,0,0,0-2.718.5l.918-.774,1.44-1.206c1.44-1.224,2-1.71,3.2-2.718V66.41c-3.942.234-6.174.324-9.468.378Zm6.426,11.2c-.576.036-.882.054-1.26.054-1.728,0-2.79-.648-2.79-1.692a1.2,1.2,0,0,1,1.332-1.17,2.635,2.635,0,0,1,2.052,1.1A3.316,3.316,0,0,1,82.368,79.136Zm9.126,1.584a37.429,37.429,0,0,0,3.078-2.358c1.476,2.088,2.718,2.484,7.434,2.43h2.214c.414,0,.954,0,2.52-.036l.414-1.152c-3.474.108-5.724.162-7.2.162a6.836,6.836,0,0,1-3.1-.5,4.136,4.136,0,0,1-1.818-1.674V71.54H91.152v1.026H93.96v5.058a26.575,26.575,0,0,1-2.88,2.034Zm.432-14.292A24.415,24.415,0,0,1,94.734,69l.81-.792a17.36,17.36,0,0,0-2.826-2.556ZM95.49,70.46h11.124v-.828H101.5v-.81h4.14V66.248H101.5V65.1h-.936v1.152H96.588v2.574h3.978v.81H95.49Zm1.98-2.394V67.022h3.1v1.044Zm4.032,0V67.022h3.222v1.044ZM97.326,79.1a13.2,13.2,0,0,0,2.736-1.494l-.72-.684h3.24l-.558.576a17.58,17.58,0,0,0,3.636,1.728l.738-.81a19.663,19.663,0,0,1-3.42-1.494H105.1v-5.76H96.93v5.76h2.358a10.811,10.811,0,0,1-2.736,1.368Zm.54-2.988v-.9h6.3v.9Zm0-1.656v-.972h6.3v.972Zm0-1.692v-.828h6.3v.828Zm14.922-7.488A18.607,18.607,0,0,1,108.7,73l.4,1.26a11.613,11.613,0,0,0,1.836-2.3v8.964h1.1V70.208a21.293,21.293,0,0,0,1.854-4.788Zm.288,7.236h3.474a46.024,46.024,0,0,1-1.98,6.66c-.7.018-.81.018-1.494.018l.4,1.17.828-.072c3.834-.252,5.112-.36,8.964-.792.234.63.252.72.45,1.35l1.17-.5a25.388,25.388,0,0,0-3.456-6.714l-1.008.522a23.327,23.327,0,0,1,2.5,4.356c-1.566.234-5.238.558-7.326.63a53.751,53.751,0,0,0,2.16-6.624H124.9v-1.08H113.076Zm1.17-5h9.648v-1.08h-9.648Zm13.086,6.264h7.254V78.92c0,.81-.018.81-1.224.81-.468,0-.738-.018-1.854-.072l.342,1.17c1.008.072,1.53.108,2,.108,1.548,0,1.872-.288,1.872-1.638V73.772H142.7v-1.08H135.72v-1.71a47.429,47.429,0,0,0,5.634-3.636V66.41H128.826v1.044h10.512a34.929,34.929,0,0,1-4.752,3.078v2.16h-7.254Zm31.41-6.03a17.065,17.065,0,0,0-1.44-2.466l-1.062.36a16.4,16.4,0,0,1,1.4,2.43Zm-.018-2.628a16.455,16.455,0,0,1,1.44,2.5l1.1-.324a15.419,15.419,0,0,0-1.494-2.52Zm-8.28.486c-.162,1.35-.2,1.62-.522,3.384-1.4.162-1.566.18-3.816.5l.108,1.152c.666-.144,2.394-.432,3.492-.576-1.188,4.59-2.124,7.02-3.6,9.432l1.134.864a42.39,42.39,0,0,0,3.654-10.422,18.471,18.471,0,0,1,1.962-.108,2.045,2.045,0,0,1,1.566.468c.378.36.5.846.5,1.98a20.436,20.436,0,0,1-.7,5.526c-.234.756-.612,1.08-1.278,1.08a11.853,11.853,0,0,1-2.538-.378l.306,1.3A13.965,13.965,0,0,0,153,80.09c1.3,0,2.016-.576,2.412-2.016a23.729,23.729,0,0,0,.72-5.94c0-2.376-.9-3.384-3.024-3.384-.594,0-.756.018-2.016.108.234-.99.45-2.124.594-3.15Zm6.462,3.51a16.185,16.185,0,0,1,2.592,7.128l1.26-.4a19.263,19.263,0,0,0-2.718-7.182Zm8.514,6.354h2.988c-.252,2.5-1.62,3.618-5.6,4.626l.828,1.062c4.3-1.44,5.562-2.628,5.976-5.688h2.574v4.23c0,.468.09.738.288.882.306.216.468.234,2.538.234,2.3,0,2.934-.09,3.276-.45s.432-.918.468-3.078l-1.206-.306c-.018,2.16-.036,2.3-.252,2.484-.18.18-.864.234-2.718.234-1.26,0-1.26,0-1.26-.5V75.464H176.6V65.942H165.42Zm1.08-1.026V72.53h9v1.908Zm0-2.844V69.812h9v1.782Zm0-2.718V66.932h9v1.944Zm18.7,10.386c4.5-.18,6.426-.576,8.19-1.692a5.541,5.541,0,0,0,2.592-4.68,4.733,4.733,0,0,0-2.484-4.32,6.119,6.119,0,0,0-2.916-.648,29.438,29.438,0,0,0-5.688.756c-.45.09-1.4.288-2.106.414l-.972.18.288,1.332a36.027,36.027,0,0,1,8.082-1.494,6.261,6.261,0,0,1,2.52.414,3.707,3.707,0,0,1,2.07,3.42,4.241,4.241,0,0,1-1.044,2.772,5.912,5.912,0,0,1-3.024,1.674c-1.44.414-2.358.5-5.976.612ZM204.444,65.6c-.162,1.35-.2,1.62-.522,3.384-1.4.162-1.566.18-3.816.5l.108,1.152c.666-.144,2.394-.432,3.492-.576-1.188,4.59-2.124,7.02-3.6,9.432l1.134.864a42.39,42.39,0,0,0,3.654-10.422,18.471,18.471,0,0,1,1.962-.108,2.045,2.045,0,0,1,1.566.468c.378.36.5.846.5,1.98a20.436,20.436,0,0,1-.7,5.526c-.234.756-.612,1.08-1.278,1.08a11.853,11.853,0,0,1-2.538-.378l.306,1.3A13.965,13.965,0,0,0,207,80.09c1.3,0,2.016-.576,2.412-2.016a23.729,23.729,0,0,0,.72-5.94c0-2.376-.9-3.384-3.024-3.384-.594,0-.756.018-2.016.108.234-.99.45-2.124.594-3.15Zm6.174,3.078a16.425,16.425,0,0,1,2.88,7.56l1.26-.4a18.89,18.89,0,0,0-3.06-7.668Zm6.8,1.476,1.08-.072,1.458-.09.936-.054c.018.4.018.684.018.882s0,.5-.018.882c-1.548,2.34-2.286,3.564-3.672,6.03l.936,1.008a54.852,54.852,0,0,1,2.736-5.22c-.018,2.124-.018,2.376-.036,2.718l-.036,1.53-.054,1.512c0,.2-.018.594-.036,1.224h1.26V77.876l-.018-1.782.018-2.484V72.152c1.89-2.178,3.636-3.33,5.058-3.33a1.137,1.137,0,0,1,1.026.558,2.784,2.784,0,0,1,.234,1.35c0,.522-.036,1.332-.09,1.836a46.83,46.83,0,0,0-.342,4.878,2.843,2.843,0,0,0,.324,1.6,1.939,1.939,0,0,0,1.674.846,2.617,2.617,0,0,0,2.232-1.1c.432-.684.54-1.35.63-3.654l-1.116-.306a8.324,8.324,0,0,1-.342,3.06,1.349,1.349,0,0,1-1.242.864c-.7,0-.972-.432-.972-1.566,0-.63.072-1.908.216-4.014.162-2.322.162-2.322.162-2.628,0-1.926-.81-2.826-2.556-2.826-1.638,0-3.114.9-4.9,2.952.018-1.062.018-1.278.054-2.538l.036-1.458.018-.864H220.9c.018.36.018.684.018.864.018.486.018.738.018.972,0,.18-.018.612-.036,1.188-1.278.072-1.674.09-3.474.144Zm29.754-4.518a19.105,19.105,0,0,1,.972,2.556l1.044-.288a21.617,21.617,0,0,0-1.044-2.556Zm2.016-.432a14.5,14.5,0,0,1,1.026,2.43l1.008-.252a18.635,18.635,0,0,0-1.044-2.5Zm-12.132.882a49.645,49.645,0,0,0-.648,8.442c0,2,.072,4.176.18,5.85l1.26-.108c-.18-2.07-.252-3.348-.252-5.094,0-1.71.108-4.338.216-5.508.09-.9.162-1.386.468-3.51Zm2.268,4.194,1.134-.036,1.89-.036,2.178-.018.99-.018.018,1.134.036,1.62.018,1.566c.018.144.018.5.018,1.08a8.042,8.042,0,0,0-2.646-.486c-1.746,0-3.042,1.008-3.042,2.394,0,1.53,1.44,2.574,3.546,2.574a4.133,4.133,0,0,0,2.61-.756,2.37,2.37,0,0,0,.756-2,17.949,17.949,0,0,1,2.934,2.07l.738-1.062a18.971,18.971,0,0,0-3.672-2.214c0-.5,0-.864-.018-.972l-.018-1.368c-.018-.936-.036-1.512-.054-3.618l.684-.018,1.278-.018,1.044-.036.684-.018V68.84c-1.6.108-2.628.162-3.708.2-.018-.738-.018-1.26-.018-1.656,0-.342,0-.72.018-1.4h-1.332c.018.306.036.5.036.612l.036.846c.036,1.1.036,1.1.036,1.224v.4l-1.026.018c-.252,0-.918,0-1.836.018h-3.312Zm6.318,6.66c0,.27,0,.378-.018.648-.054.918-.846,1.422-2.25,1.422-1.368,0-2.34-.612-2.34-1.458,0-.828.828-1.4,2-1.4a6.38,6.38,0,0,1,2.61.594Zm7.074,0a26.159,26.159,0,0,1,3.852,4.536l1.008-.9A27.283,27.283,0,0,0,253.6,76.13Zm25.578-11c.072.972.072,1.188.108,2.43l.054,1.872c.09,2.952.09,2.97.108,4.932a11.5,11.5,0,0,0-2.268-.234c-2.394,0-3.834.99-3.834,2.61,0,1.692,1.548,2.808,3.888,2.808a4.145,4.145,0,0,0,2.592-.72,2,2,0,0,0,.792-1.818c0-.162-.018-.558-.036-1.242a18.744,18.744,0,0,1,5.13,2.754l.81-1.116a20.82,20.82,0,0,0-5.94-2.772v-.864l-.018-1.53-.018-1.458-.018-1.08.864-.036c1.422-.036,2.268-.054,2.556-.072.792-.018.936-.036,1.764-.072V69.182c-1.782.108-4.14.2-5.22.2-.018-.864-.018-1.044-.036-1.584V65.942Zm.27,10.332s.018.72.018.846c0,.954-.09,1.368-.4,1.6a3.148,3.148,0,0,1-2.016.522c-1.512,0-2.52-.666-2.52-1.656,0-1.062.864-1.566,2.628-1.566A9.549,9.549,0,0,1,278.568,76.274ZM292.842,66a34.818,34.818,0,0,0-.576,6.372c0,1.008.018,1.854.108,3.726h1.278a10.75,10.75,0,0,1,2.268-6.588c.954-1.26,1.854-1.872,2.754-1.872a2.228,2.228,0,0,1,2.016,1.854,12.4,12.4,0,0,1,.27,2.97c0,2.5-.36,3.852-1.26,4.9-1.134,1.3-2.574,1.728-5.814,1.728l.54,1.188h.432a8.719,8.719,0,0,0,4.77-1.26c1.782-1.188,2.538-3.186,2.538-6.642a9.212,9.212,0,0,0-.774-4.338,2.993,2.993,0,0,0-2.682-1.566,3.8,3.8,0,0,0-2.952,1.44,11.5,11.5,0,0,0-2.394,4.41,40.135,40.135,0,0,1,.72-6.228Zm16.11,7.812a19.9,19.9,0,0,1,2.628,2.124A13.141,13.141,0,0,1,306.9,80l.846.864a17.539,17.539,0,0,0,4.626-4.194,22.662,22.662,0,0,1,2.07,2.214l.918-.828-.324-.324c-1.206-1.242-1.368-1.4-2.07-2.034a16.494,16.494,0,0,0,1.314-3.582l-1.008-.414a11.774,11.774,0,0,1-1.152,3.24c-1.152-.972-1.278-1.062-2.412-1.926Zm.954-4.464a13.517,13.517,0,0,1-2.934,3.852l.9.828a19.579,19.579,0,0,0,3.042-4.23Zm-2.664-.54h8.928v.918h1.872c-.162,5.562-1.062,8.118-3.69,10.584l.774.7c2.934-2.844,3.816-5.382,3.978-11.286h2.268l-.054,3.456c-.054,2.34-.144,4.5-.252,5.274-.108.81-.342.99-1.26.99-.288,0-.63-.036-1.728-.144l.36,1.224c.756.054,1.242.09,1.746.09,1.332,0,1.71-.378,1.89-1.926.2-1.728.378-6.624.378-9.954h-3.33V65.474h-1.08v3.258h-1.53v-.954h-4.05V65.42h-1.134v2.358h-4.086Zm5.778,1.044a18.759,18.759,0,0,0,2.664,3.276l.882-.738a17.652,17.652,0,0,1-2.664-3.078ZM325.548,80.72c3.114-1.44,5.994-3.636,6.894-5.256V81.17H333.5V75.446c1.17,1.818,3.168,3.348,6.606,5.058l.882-.864a19.726,19.726,0,0,1-6.66-4.536h6.336v-.972H333.5v-1.6h5.562V66.158h-12.1V72.53h5.472v1.6h-7.164V75.1h6.21a17.206,17.206,0,0,1-6.642,4.68ZM328,71.594V69.812h4.446v1.782Zm0-2.646V67.13h4.446v1.818Zm5.508,2.646V69.812h4.518v1.782Zm0-2.646V67.13h4.518v1.818Zm10.152,11.394h1.08V79.37h4.752V67.724h-2.682a23.733,23.733,0,0,0,.54-2.34l-1.17-.054c-.108.864-.144.99-.4,2.394h-2.124Zm1.08-2V73.862h3.708v4.482Zm0-5.472V68.75h3.708v4.122Zm7.362-7.6a11.275,11.275,0,0,1-2.376,6.948l.882.7a12.14,12.14,0,0,0,2.034-4.176h4.482c0,3.474-.054,6.552-.162,8.5-.108,2.124-.252,2.394-1.17,2.394a22.2,22.2,0,0,1-2.286-.2l.378,1.188a17.9,17.9,0,0,0,1.818.09c1.746,0,2.106-.324,2.286-2.16.144-1.3.216-4.248.27-10.206V67.67h-5.346a19.943,19.943,0,0,0,.342-2.394Zm-.5,7.29a20.746,20.746,0,0,1,2.394,4.032l1.044-.666a16.443,16.443,0,0,0-2.538-4.014ZM9.846,100.876a18.784,18.784,0,0,1,5.8,1.458l.18-1.224A20.954,20.954,0,0,0,10.008,99.8Zm-7.758.756c.576-.018.738-.018,2.826-.126a30.346,30.346,0,0,1-3.276,8.262l1.152.648A41.229,41.229,0,0,0,6.1,101.452c1.476-.126,1.818-.144,2.844-.252l-.072-1.206c-.9.126-1.242.162-2.484.288.234-1.008.324-1.4.486-2.3L5.634,97.87c-.09.63-.216,1.386-.45,2.5-1.062.036-1.548.054-2.9.054H2.034Zm10.836,1.44-1.17.036.018.162.018.306.09,1.458.108,1.53c0,.126.018.468.054.972a7.6,7.6,0,0,0-2.484-.432c-2,0-3.294,1.044-3.294,2.628a2.343,2.343,0,0,0,1.08,2,4.088,4.088,0,0,0,2.358.558,4.077,4.077,0,0,0,2.664-.684,2.567,2.567,0,0,0,.864-2.3,13.145,13.145,0,0,1,2.556,1.872l.666-1.1-.2-.144A17.159,17.159,0,0,0,13.212,108c-.036-.576-.054-1.152-.072-1.332,0-.288-.054-1.044-.126-2.142l-.054-1.008Zm-.846,5.688a5.3,5.3,0,0,1-.108,1.314c-.216.684-.99,1.08-2.124,1.08-1.566,0-2.412-.522-2.412-1.494,0-.9.792-1.494,1.962-1.494A6.733,6.733,0,0,1,12.078,108.76Zm7.056-5.778a25.012,25.012,0,0,1,3.294,2.412l.684-.972a29.28,29.28,0,0,0-3.294-2.358Zm3.222,3.186a38.445,38.445,0,0,1-2.9,6.1l1.116.81a52.021,52.021,0,0,0,2.808-6.228Zm-1.98-7.722a22.592,22.592,0,0,1,3.2,2.574l.792-.936a26.564,26.564,0,0,0-3.222-2.556Zm3.294,4.572.324,1.134,9.162-.684c.306.54.342.612.594,1.116l1.026-.666A25.435,25.435,0,0,0,31.3,99l-.918.648c.108.144.216.288.324.414.432.522.684.846.864,1.044.324.432.522.7,1.008,1.4l-6.264.432A41.863,41.863,0,0,0,28.674,97.6L27.4,97.4a43.67,43.67,0,0,1-2.16,5.562Zm1.188,10.26h1.1V112.5H32.49v.72h1.152V105.7H24.858Zm1.1-1.872V106.78H32.49v4.626Zm13.554-6.75a24.134,24.134,0,0,1-2.97,1.494l.324,1.116a19.622,19.622,0,0,0,2.646-1.62,9.558,9.558,0,0,1-2.286,6.534l.684.936a10.852,10.852,0,0,0,2.646-7.218v-1.1l.414.828c.342-.126.342-.126,1.206-.486v3.51h3.69v2.862c0,.5-.09.594-.594.594-.288,0-1.242-.072-1.692-.108l.4,1.062c.882.036,1.044.036,1.4.036,1.242,0,1.53-.216,1.53-1.1v-3.348h3.384v-3.906a13.454,13.454,0,0,0,2.016.756l.5-.81-.306-.108a18.788,18.788,0,0,1-2.484-.9,8.094,8.094,0,0,0,1.3-1.35l-.936-.45a7.254,7.254,0,0,1-1.17,1.368,6.545,6.545,0,0,1-2.16-1.638h5.436v-.828h-5.9V99.6h5.742v-.864H46.242V97.078h-1.1v1.656H39.51v3.978a31.069,31.069,0,0,0-1.584-2.826l-.846.72a26.686,26.686,0,0,1,1.6,2.934l.828-.684Zm1.044-3.042h4.7a5.521,5.521,0,0,1-1.746,1.728l-1.242-1.368-.738.594,1.134,1.278a10.538,10.538,0,0,1-2.106.81Zm0-.828V99.6H45.63v1.188Zm2.538,7.056V106.51H49.32v1.332Zm0-2.106v-1.1H49.32v1.1Zm1.224-1.908a7.5,7.5,0,0,0,1.908-2.16,6.847,6.847,0,0,0,2.34,2.16Zm-1.17,5.148a12.7,12.7,0,0,1-2.34,3.114l.9.612a15.727,15.727,0,0,0,2.448-3.4Zm5.508.576a20.588,20.588,0,0,0,2.772,2.826l.81-.72c-.81-.72-.864-.774-1.422-1.278A15.021,15.021,0,0,1,49.5,108.9Zm20.088-9.81a17.066,17.066,0,0,0-1.44-2.466l-1.062.36a16.4,16.4,0,0,1,1.4,2.43Zm-.018-2.628a16.456,16.456,0,0,1,1.44,2.5l1.1-.324a15.419,15.419,0,0,0-1.494-2.52Zm-8.28.486c-.162,1.35-.2,1.62-.522,3.384-1.4.162-1.566.18-3.816.5l.108,1.152c.666-.144,2.394-.432,3.492-.576-1.188,4.59-2.124,7.02-3.6,9.432l1.134.864a42.39,42.39,0,0,0,3.654-10.422,18.471,18.471,0,0,1,1.962-.108,2.045,2.045,0,0,1,1.566.468c.378.36.5.846.5,1.98a20.437,20.437,0,0,1-.7,5.526c-.234.756-.612,1.08-1.278,1.08a11.853,11.853,0,0,1-2.538-.378l.306,1.3A13.965,13.965,0,0,0,63,112.09c1.3,0,2.016-.576,2.412-2.016a23.729,23.729,0,0,0,.72-5.94c0-2.376-.9-3.384-3.024-3.384-.594,0-.756.018-2.016.108.234-.99.45-2.124.594-3.15Zm6.462,3.51a16.185,16.185,0,0,1,2.592,7.128l1.26-.4a19.263,19.263,0,0,0-2.718-7.182Zm8.892,7.974a9.7,9.7,0,0,1-3.06,3.114l.954.756a11.217,11.217,0,0,0,3.06-3.312Zm-2.9-.288h9.054v-.972H80.262V100.21h1.692v-.972H80.262V97.384h-1.08v1.854H75.888V97.42h-1.08v1.818H73.116v.972h1.692v7.614H72.9Zm2.988-.972v-2.142h3.294v2.142Zm0-3.06v-1.98h3.294v1.98Zm0-2.88V100.21h3.294v1.674Zm2.2,7.794a21.45,21.45,0,0,0,2.052,1.944l.756-.882c-.792-.648-1.386-1.17-1.98-1.746Zm2.862,3.672a9.875,9.875,0,0,0,2.592-5.652h3.8v3.51c0,.612-.09.684-.774.684-.342,0-.414,0-1.908-.054l.378,1.116c.576.018.882.018,1.206.018,1.368,0,1.6-.018,1.854-.2.234-.162.342-.468.342-.972V97.924H82.566v8.082a9.156,9.156,0,0,1-2.484,6.606Zm2.664-6.624c.036-.522.036-.738.036-1.008v-2.592h3.69v3.6Zm.036-4.536V98.968h3.69v3.222Zm11.394-.972a24.764,24.764,0,0,1-4.266,4.986l.414,1.17a20.74,20.74,0,0,0,1.98-2v7.542h1.08v-8.73a18.388,18.388,0,0,0,1.692-2.394ZM95,97.312a17.138,17.138,0,0,1-3.942,3.816l.4,1.1a19.351,19.351,0,0,0,4.5-4.3Zm.738,6.174h7.794v1.944H95.8v1.044h7.74v4.788c0,.36-.234.486-.882.486-.54,0-1.458-.036-2.142-.108l.306,1.116c.612.036.9.054,1.4.054a6.426,6.426,0,0,0,1.6-.126,1.009,1.009,0,0,0,.756-1.062v-5.148h2.268V105.43H104.58v-1.944h2.484V102.46H101.52v-2.142h4.806V99.292H101.52V97.168h-1.044v2.124H96.3v1.026h4.176v2.142H95.742Zm1.08,4.032a24.436,24.436,0,0,1,2.718,3.636l.936-.72a33.364,33.364,0,0,0-2.808-3.582Zm22.626-5.31a24.809,24.809,0,0,1,1.3,2.43l1.026-.378a23.288,23.288,0,0,0-1.35-2.448Zm2.412-.594a21.883,21.883,0,0,1,1.386,2.52l.972-.36a17.411,17.411,0,0,0-1.4-2.5Zm1.674-2.484c-.594.036-1.044.072-1.242.09l-1.692.09c-.738.054-1.458.108-2.178.144l-.756.036c-1.206.072-2.214.108-3.2.162l-1.116.054c-.63.018-1.116.054-1.422.054-.81.036-1.08.036-2.052.054l.036,1.26,1.62-.108,3.258-.2,2.142-.126,1.116-.072a9.482,9.482,0,0,0-2.538,2.106,5.947,5.947,0,0,0-1.44,3.816,4.714,4.714,0,0,0,2.034,3.96c1.152.828,2.556,1.152,4.842,1.152.324,0,.846-.018,1.6-.054v-1.26a17.2,17.2,0,0,1-1.854.09,6.447,6.447,0,0,1-3.87-.882,3.562,3.562,0,0,1-1.548-3.114c0-1.962,1.116-3.654,3.24-4.95,1.386-.846,2.556-1.1,5.022-1.1Zm11.34,1.764.342.828c.216.576.36.918.414,1.044.072.162.108.234.162.378l-.342.018c-2.286.144-4.23.252-5.832.306l-1.3.036.09,1.116.936-.054,1.98-.108,2.178-.126c1.224-.072,1.89-.108,1.98-.126.126,0,.378-.018.774-.054a33.088,33.088,0,0,0,1.764,3.258,9.1,9.1,0,0,0-4.536-.99c-2.682,0-4.374,1.08-4.374,2.79a3.2,3.2,0,0,0,2.538,2.934,13.88,13.88,0,0,0,3.8.45,38.575,38.575,0,0,0,4.158-.324v-1.242a26.386,26.386,0,0,1-4.374.45c-3.168,0-4.932-.792-4.932-2.214,0-1.134,1.188-1.836,3.132-1.836a11.785,11.785,0,0,1,5.346,1.314l1.008-.666a33.723,33.723,0,0,1-2.286-4l1.188-.09,1.17-.072,1.332-.09.792-.054-.09-1.1c-.954.108-2.232.216-4.392.36l-.468.036c-.072-.162-.144-.324-.252-.576l-.666-1.638-.018-.054.36-.018.36-.036q1.836-.135,2.376-.162c.558-.054,1.134-.108,1.692-.144l-.108-1.062c-1.008.108-1.1.108-2.538.216-.594.036-.774.054-2.052.144l-.486.036c-.324-.936-.558-1.6-.738-2.232l-1.26.18c.414,1.188.558,1.584.774,2.142l-.45.036c-.954.09-2.394.144-4.914.216l.108,1.1c2.322-.108,3.168-.144,5.13-.288Zm11.394,3.78c.72-.018,1.386-.018,1.4-.018l2.052-.036,1.944-.036,1.224-.018.036,2.736a8.226,8.226,0,0,0-2-.234c-2.286,0-3.87,1.044-3.87,2.592a2.605,2.605,0,0,0,1.278,2.124,5.241,5.241,0,0,0,2.43.5c1.458,0,2.448-.324,2.916-.954.378-.5.432-.864.432-2.646a17.922,17.922,0,0,1,4.842,2.628l.864-.954a19.985,19.985,0,0,0-5.742-2.808l-.036-2.988c2.7-.036,3.456-.054,5.814-.144v-1.08l-.9.036c-3.582.09-3.6.09-4.914.108V101l.846-.018,1.566-.018,1.746-.036.828-.036V99.76c-.45.018-.738.018-.882.018l-1.638.054-1.584.036c-.09,0-.432,0-.918.018l-.036-2.106H152.8l.036,2.124h-1.026l-1.782.018-1.926.018h-1.116v1.17l1.134-.018c.27,0,.99-.018,1.746-.036l1.908-.036,1.116-.018v2.5l-1.188.018-2.412.018h-3.024Zm6.7,4.194a3.971,3.971,0,0,1-.252,1.692c-.252.432-.936.648-2.088.648-1.566,0-2.394-.5-2.394-1.458,0-1.008.972-1.62,2.556-1.62a11.923,11.923,0,0,1,2.16.234s0,.072.018.252Zm19.008-8.8-.9.018c-1.6.036-1.854.036-3.078.036-1.62,0-2.484-.018-4.284-.054v1.152c1.44.018,1.44.018,1.692.018.666,0,.666,0,4.446-.036l1.1-.018,1.116-.018v2.088a4.164,4.164,0,0,0-2.286-.63,3,3,0,0,0-3.168,2.9,2.858,2.858,0,0,0,3.024,2.826,3.56,3.56,0,0,0,2.484-.954,1.957,1.957,0,0,0,.576-.99c.018.234.018.4.018.522,0,2.9-1.98,4.23-6.372,4.338l.486,1.206a10.193,10.193,0,0,0,4.428-.99,4.709,4.709,0,0,0,2.5-4.374,5.9,5.9,0,0,0-.54-2.52v-3.438l.306-.018h.288l1.89-.036c.324-.018,1.026-.036,1.782-.054l.828-.036v-1.17l-1.17.054-.882.054c-.558.018-1.008.054-1.314.054-.522.018-.774.036-1.4.054h-.324V97.78h-1.242Zm-1.962,3.51a1.777,1.777,0,0,1,2,1.674,2.232,2.232,0,0,1-2.25,2.052,1.811,1.811,0,0,1-1.98-1.8A1.975,1.975,0,0,1,170.01,103.576Zm13.824,4.536a2.187,2.187,0,1,1-2.16,2.178A2.193,2.193,0,0,1,183.834,108.112Zm.072-.792a2.979,2.979,0,1,0,2.934,2.97A2.981,2.981,0,0,0,183.906,107.32ZM4.446,137.3a6.3,6.3,0,0,0-1.512,3.582,2.511,2.511,0,0,0,.81,1.818,4.318,4.318,0,0,0,2.25.864,31.353,31.353,0,0,0,4.14.252c1.566,0,3.546-.108,5.346-.27l-.108-1.278a48.257,48.257,0,0,1-6.246.378,14.578,14.578,0,0,1-3.8-.414,1.652,1.652,0,0,1-1.206-1.476c0-.828.378-1.584,1.422-2.934Zm9.882-5.8c-2.592.2-4.9.288-6.966.288-.99,0-1.908-.036-3.33-.108l.054,1.224c1.242.054,2.142.072,3.78.072,2.484,0,4.122-.054,6.5-.234Zm5.094,2.646,1.08-.072,1.458-.09.936-.054c.018.4.018.684.018.882s0,.5-.018.882c-1.548,2.34-2.286,3.564-3.672,6.03l.936,1.008a54.85,54.85,0,0,1,2.736-5.22c-.018,2.124-.018,2.376-.036,2.718l-.036,1.53-.054,1.512c0,.2-.018.594-.036,1.224h1.26v-2.628l-.018-1.782.018-2.484v-1.458c1.89-2.178,3.636-3.33,5.058-3.33a1.137,1.137,0,0,1,1.026.558,2.784,2.784,0,0,1,.234,1.35c0,.522-.036,1.332-.09,1.836a46.831,46.831,0,0,0-.342,4.878,2.843,2.843,0,0,0,.324,1.6,1.939,1.939,0,0,0,1.674.846,2.617,2.617,0,0,0,2.232-1.1c.432-.684.54-1.35.63-3.654l-1.116-.306a8.324,8.324,0,0,1-.342,3.06,1.349,1.349,0,0,1-1.242.864c-.7,0-.972-.432-.972-1.566,0-.63.072-1.908.216-4.014.162-2.322.162-2.322.162-2.628,0-1.926-.81-2.826-2.556-2.826-1.638,0-3.114.9-4.9,2.952.018-1.062.018-1.278.054-2.538l.036-1.458.018-.864H22.9c.018.36.018.684.018.864.018.486.018.738.018.972,0,.18-.018.612-.036,1.188-1.278.072-1.674.09-3.474.144ZM42.444,129.6c-.162,1.35-.2,1.62-.522,3.384-1.4.162-1.566.18-3.816.5l.108,1.152c.666-.144,2.394-.432,3.492-.576-1.188,4.59-2.124,7.02-3.6,9.432l1.134.864a42.391,42.391,0,0,0,3.654-10.422,18.469,18.469,0,0,1,1.962-.108,2.045,2.045,0,0,1,1.566.468c.378.36.5.846.5,1.98a20.437,20.437,0,0,1-.7,5.526c-.234.756-.612,1.08-1.278,1.08a11.853,11.853,0,0,1-2.538-.378l.306,1.3A13.965,13.965,0,0,0,45,144.09c1.3,0,2.016-.576,2.412-2.016a23.729,23.729,0,0,0,.72-5.94c0-2.376-.9-3.384-3.024-3.384-.594,0-.756.018-2.016.108.234-.99.45-2.124.594-3.15Zm6.174,3.078a16.425,16.425,0,0,1,2.88,7.56l1.26-.4a18.89,18.89,0,0,0-3.06-7.668Zm9.432.072a56.139,56.139,0,0,1-.63,7.506l1.332.126c1.692-2.52,3.888-3.87,6.228-3.87a2.975,2.975,0,0,1,3.276,2.988c0,1.62-1.206,2.844-3.186,3.258a19.553,19.553,0,0,1-3.8.27c-.756,0-1.224-.018-2.286-.072l.378,1.224A34.282,34.282,0,0,0,64.44,144c3.312-.45,5.022-2,5.022-4.536a3.871,3.871,0,0,0-1.314-2.97,4.284,4.284,0,0,0-3.06-1.1,7.01,7.01,0,0,0-3.132.738,8.786,8.786,0,0,0-3.24,2.646c.18-1.3.252-2.088.5-5.958Zm.54-1.368a38.055,38.055,0,0,1,7.47,1.116l.522-1.152a43.149,43.149,0,0,0-7.6-1.116Zm19.764,6.12c0,3.96-1.116,5.382-5.328,6.768l1.026.918a10.612,10.612,0,0,0,4.3-2.826c.774-1.008,1.008-2.088,1.08-4.86H82.35v6.174a1.044,1.044,0,0,0,.576,1.062,6.77,6.77,0,0,0,2.592.2,5.682,5.682,0,0,0,2.016-.216,1.425,1.425,0,0,0,.864-1.026c.036-.288.09-1.314.09-2.106,0-.036,0-.144-.018-.342l-1.044-.234a12.949,12.949,0,0,1-.126,2.2c-.18.522-.558.612-2.556.612-1.134,0-1.3-.072-1.3-.648V137.5H88.47v-1.08H81.738v-3.33h5.67v-1.044h-5.67v-2.9H80.622v2.9H77.31a16.222,16.222,0,0,0,.594-1.926l-1.152-.27a10.86,10.86,0,0,1-2.844,5.418l1.008.684a13.17,13.17,0,0,0,1.944-2.862h3.762v3.33H73.476v1.08Zm21.1,6.408a9.541,9.541,0,0,0,4.518-1.422,5.652,5.652,0,0,0,2.394-4.932A6.671,6.671,0,0,0,104.706,133a6.478,6.478,0,0,0-5.058-2.034c-4.7,0-8.064,3.078-8.064,7.362,0,2.826,1.494,4.878,3.582,4.878,1.368,0,2.25-.936,3.114-3.384a34.992,34.992,0,0,0,1.692-7.776,5.285,5.285,0,0,1,3.528,1.386,5.231,5.231,0,0,1,1.62,4.05c0,3.258-1.908,4.878-6.174,5.274ZM98.766,132.1a33.758,33.758,0,0,1-.972,5.328c-.846,3.168-1.674,4.608-2.646,4.608-1.332,0-2.358-1.692-2.358-3.906a5.531,5.531,0,0,1,2.178-4.518A6.315,6.315,0,0,1,98.766,132.1Zm10.368,2.88a25.012,25.012,0,0,1,3.294,2.412l.684-.972a29.28,29.28,0,0,0-3.294-2.358Zm3.222,3.186a38.446,38.446,0,0,1-2.9,6.1l1.116.81a52.02,52.02,0,0,0,2.808-6.228Zm-1.98-7.722a22.591,22.591,0,0,1,3.2,2.574l.792-.936a26.565,26.565,0,0,0-3.222-2.556Zm3.294,4.572.324,1.134,9.162-.684c.306.54.342.612.594,1.116l1.026-.666A25.435,25.435,0,0,0,121.3,131l-.918.648c.108.144.216.288.324.414.432.522.684.846.864,1.044.324.432.522.7,1.008,1.4l-6.264.432a41.863,41.863,0,0,0,2.358-5.346l-1.278-.2a43.67,43.67,0,0,1-2.16,5.562Zm1.188,10.26h1.1V144.5h6.534v.72h1.152V137.7h-8.784Zm1.1-1.872V138.78h6.534v4.626Zm13.554-6.75a24.132,24.132,0,0,1-2.97,1.494l.324,1.116a19.622,19.622,0,0,0,2.646-1.62,9.558,9.558,0,0,1-2.286,6.534l.684.936a10.852,10.852,0,0,0,2.646-7.218v-1.1l.414.828c.342-.126.342-.126,1.206-.486v3.51h3.69v2.862c0,.5-.09.594-.594.594-.288,0-1.242-.072-1.692-.108l.4,1.062c.882.036,1.044.036,1.4.036,1.242,0,1.53-.216,1.53-1.1v-3.348h3.384v-3.906a13.453,13.453,0,0,0,2.016.756l.5-.81-.306-.108a18.789,18.789,0,0,1-2.484-.9,8.094,8.094,0,0,0,1.3-1.35l-.936-.45a7.254,7.254,0,0,1-1.17,1.368,6.545,6.545,0,0,1-2.16-1.638h5.436v-.828h-5.9V131.6h5.742v-.864h-6.084v-1.656h-1.1v1.656H129.51v3.978a31.069,31.069,0,0,0-1.584-2.826l-.846.72a26.686,26.686,0,0,1,1.6,2.934l.828-.684Zm1.044-3.042h4.7a5.521,5.521,0,0,1-1.746,1.728l-1.242-1.368-.738.594,1.134,1.278a10.538,10.538,0,0,1-2.106.81Zm0-.828V131.6h5.076v1.188Zm2.538,7.056V138.51h6.228v1.332Zm0-2.106v-1.1h6.228v1.1Zm1.224-1.908a7.5,7.5,0,0,0,1.908-2.16,6.847,6.847,0,0,0,2.34,2.16Zm-1.17,5.148a12.7,12.7,0,0,1-2.34,3.114l.9.612a15.726,15.726,0,0,0,2.448-3.4Zm5.508.576a20.588,20.588,0,0,0,2.772,2.826l.81-.72c-.81-.72-.864-.774-1.422-1.278A15.022,15.022,0,0,1,139.5,140.9Zm8.622-11.106a54.564,54.564,0,0,0-.63,8.334c0,1.566.054,3.186.162,5.166l1.3-.072c-.18-1.656-.288-3.87-.306-5.868v-.2a49.332,49.332,0,0,1,.666-7.218Zm4.122,6.606a6.226,6.226,0,0,0-1.35,3.4,2.475,2.475,0,0,0,1.566,2.2,10.251,10.251,0,0,0,4.32.594c1.584,0,2.664-.054,4.068-.18l-.036-1.242a41.888,41.888,0,0,1-4.68.252c-2.844,0-4.032-.54-4.032-1.872,0-.666.288-1.314,1.206-2.7Zm-.774-3.8c3.852-.054,4.842-.09,8.55-.234v-1.206c-.828.018-.936.036-1.368.054-1.062.054-1.782.072-2.2.09-1.782.054-2.7.072-4.986.072Zm15.282,8.118a21.424,21.424,0,0,1-2.952,1.944l.324,1.188a32.926,32.926,0,0,0,3.186-2.322,5.279,5.279,0,0,0,3.888,2.484c.468.072,2.178.126,4,.126.648,0,.882,0,1.728-.036,1.08-.018,1.818-.036,2.034-.036l.648-.018.468-1.17c-3.006.126-4.176.162-5.724.162-2.826,0-3.6-.09-4.5-.486a4.776,4.776,0,0,1-1.962-1.728v-5.832h-3.978v1.08h2.844Zm-1.944-10.926a9.076,9.076,0,0,1,.756.666c.54.5,1.08,1.026,1.638,1.548.054.054.2.2.324.342l.792-.882c-1.422-1.386-1.566-1.494-2.736-2.538Zm7.74,5.6a14.77,14.77,0,0,1-4.1,5.13l.756.846a13.909,13.909,0,0,0,4.086-5.634v6.534h1.026v-6.372a15.134,15.134,0,0,0,4.644,5.31l.7-.972a16.163,16.163,0,0,1-4.716-4.842h4.23V135h-4.86v-5.454H172.44V135H167.8v1.044Zm-3.276-5.22c.54,1.152,1.224,2.826,1.53,3.708l1.044-.414a31.068,31.068,0,0,0-1.548-3.708Zm8.1-.7a26.023,26.023,0,0,1-1.62,3.888l.99.45a40.477,40.477,0,0,0,1.818-3.906Zm5.292,4.068.522-.018,1.332-.054,1.278-.036c.072,0,.252,0,.5-.018v1.494c-1.278,1.656-1.422,1.854-1.872,2.484-.432.63-1.062,1.566-1.944,2.862l.774,1.044a51.735,51.735,0,0,1,3.042-4.68c-.054,1.89-.054,1.962-.09,3.456-.054,2.358-.054,2.394-.108,3.8H186.5c-.018-2.07-.018-2.25-.018-2.718,0-.45,0-.45.054-4l.018-1.692c1.854-2.178,3.456-3.132,5.256-3.132,2.034,0,3.258,1.674,3.258,4.41,0,2.268-.666,3.6-2.2,4.428-.972.54-2.034.738-4.7.9l.5,1.206a11.959,11.959,0,0,0,4.716-1.044c1.962-1.008,2.808-2.664,2.808-5.454,0-3.366-1.71-5.544-4.338-5.544a6.688,6.688,0,0,0-3.186.936,9.99,9.99,0,0,0-2.142,1.818v-.522l.036-1.08.054-1.3.036-1.26.018-.7H185.49c-.018.342-.018.522-.018.756v.216c.018.7.018,1.116.018,1.26v.954c-.324.018-.576.036-.666.036l-1.242.018-1.152.036h-.612Zm17.6-.036,1.08-.072,1.458-.09.936-.054c.018.4.018.684.018.882s0,.5-.018.882c-1.548,2.34-2.286,3.564-3.672,6.03l.936,1.008a54.849,54.849,0,0,1,2.736-5.22c-.018,2.124-.018,2.376-.036,2.718l-.036,1.53-.054,1.512c0,.2-.018.594-.036,1.224h1.26v-2.628l-.018-1.782.018-2.484v-1.458c1.89-2.178,3.636-3.33,5.058-3.33a1.137,1.137,0,0,1,1.026.558,2.784,2.784,0,0,1,.234,1.35c0,.522-.036,1.332-.09,1.836a46.83,46.83,0,0,0-.342,4.878,2.843,2.843,0,0,0,.324,1.6,1.939,1.939,0,0,0,1.674.846,2.617,2.617,0,0,0,2.232-1.1c.432-.684.54-1.35.63-3.654l-1.116-.306a8.324,8.324,0,0,1-.342,3.06,1.349,1.349,0,0,1-1.242.864c-.7,0-.972-.432-.972-1.566,0-.63.072-1.908.216-4.014.162-2.322.162-2.322.162-2.628,0-1.926-.81-2.826-2.556-2.826-1.638,0-3.114.9-4.9,2.952.018-1.062.018-1.278.054-2.538l.036-1.458.018-.864H202.9c.018.36.018.684.018.864.018.486.018.738.018.972,0,.18-.018.612-.036,1.188-1.278.072-1.674.09-3.474.144Zm32.112-3.024c-.594.036-1.044.072-1.242.09l-1.692.09c-.738.054-1.458.108-2.178.144l-.756.036c-1.206.072-2.214.108-3.2.162l-1.116.054c-.63.018-1.116.054-1.422.054-.81.036-1.08.036-2.052.054l.036,1.26,1.62-.108,3.258-.2,2.142-.126,1.116-.072a9.482,9.482,0,0,0-2.538,2.106,5.947,5.947,0,0,0-1.44,3.816,4.714,4.714,0,0,0,2.034,3.96c1.152.828,2.556,1.152,4.842,1.152.324,0,.846-.018,1.6-.054v-1.26a17.2,17.2,0,0,1-1.854.09,6.447,6.447,0,0,1-3.87-.882,3.562,3.562,0,0,1-1.548-3.114c0-1.962,1.116-3.654,3.24-4.95,1.386-.846,2.556-1.1,5.022-1.1Zm5.184.054-.018.81-.036,1.638c-.054,1.872-.054,1.872-.054,2.538,0,2.736.216,4.3.774,5.526.576,1.26,1.4,2.124,2.034,2.124.972,0,2.052-1.422,3.834-5.058l-.828-.954c-1.476,2.952-2.52,4.518-2.988,4.518-.342,0-.72-.486-1.044-1.368a14.1,14.1,0,0,1-.612-4.77c0-1.008.108-3.078.234-4.878Zm8.694,1.6a12.986,12.986,0,0,1,3.33,8.856l1.368-.162a14.15,14.15,0,0,0-3.636-9.36Zm10.53-.846c1.17-.036,1.4-.036,2.268-.09s1.134-.072,4.068-.234l1.26-.072c-.45.4-.774.666-.918.81l-1.188.972a88.346,88.346,0,0,1-7.146,5.634l.72,1.152c.666-.558.864-.738,2.25-1.89a7.19,7.19,0,0,1,2.106-1.152,8.864,8.864,0,0,1,3.078-.54c2.448,0,3.816,1.134,3.816,3.168a2.974,2.974,0,0,1-1.026,2.322,4.029,4.029,0,0,1-1.728.918,5.288,5.288,0,0,0-1.08-2.3,3.428,3.428,0,0,0-2.646-1.3,2.293,2.293,0,0,0-2.538,2.214c0,1.746,1.458,2.736,4.05,2.736,3.69,0,6.156-1.854,6.156-4.608a3.9,3.9,0,0,0-1.656-3.276,5.439,5.439,0,0,0-3.222-.828,6.887,6.887,0,0,0-2.718.5l.918-.774,1.44-1.206c1.44-1.224,2-1.71,3.2-2.718v-.972c-3.942.234-6.174.324-9.468.378Zm6.426,11.2c-.576.036-.882.054-1.26.054-1.728,0-2.79-.648-2.79-1.692a1.2,1.2,0,0,1,1.332-1.17,2.635,2.635,0,0,1,2.052,1.1A3.316,3.316,0,0,1,262.368,143.136Zm11.034-2.718a9.281,9.281,0,0,1-1.944,3.51l.972.7a12.412,12.412,0,0,0,1.962-3.906Zm-1.08-1.584h6.03v.99H279.4v-.99h6.282v-3.726H279.4v-1.08h5.436v-3.564H279.4v-1.422h-1.044v1.422h-5.166v3.564h5.166v1.08h-6.03Zm1.026-.972V136.08h5v1.782Zm.882-4.77v-1.656h4.122v1.656Zm5.166,4.77V136.08h5.2v1.782Zm0-4.77v-1.656h4.374v1.656Zm-3.546,7.542v3.132a1.021,1.021,0,0,0,.864,1.062,18.452,18.452,0,0,0,2.682.09c3.672,0,4.338-.288,4.338-1.872v-.558l-1.044-.234c.018.18.018.378.018.45,0,1.044-.288,1.152-3.456,1.152H277.83c-.684.018-.882-.108-.9-.54v-2.682Zm2.556-.054a16.134,16.134,0,0,1,1.674,2.25l.918-.63a13.606,13.606,0,0,0-1.746-2.232Zm5.112-.162a25.07,25.07,0,0,1,2.34,3.582l.936-.72a19.979,19.979,0,0,0-2.412-3.438Zm6.066-.486a20.311,20.311,0,0,0,3.492-1.566v6.912h1.08v-.864h7.038v.828h1.08v-8.316H295.65a26.351,26.351,0,0,0,2.61-1.746h6.57v-1.044h-5.436a21.985,21.985,0,0,0,3.4-3.906l-1.062-.432a9.943,9.943,0,0,1-.738,1.116h-4.284V129.1h-1.1v1.818h-5.058v1.026h5.058v2.2h-6.408v1.044h7.506a36.5,36.5,0,0,1-7.848,3.69Zm4.572,3.492v-2.466h7.038v2.466Zm0-3.348v-2.16h7.038v2.16Zm2.556-5.94v-2.2h3.51a16.012,16.012,0,0,1-2.232,2.2Zm19.188-.288a35.43,35.43,0,0,0,2.52,4.23,9.834,9.834,0,0,0-4.554-1.134c-3.06,0-5.076,1.44-5.076,3.618a3.187,3.187,0,0,0,1.728,2.826,10.616,10.616,0,0,0,4.752.792,41.771,41.771,0,0,0,4.176-.252l.288-.018v-1.224l-.306.036a32.758,32.758,0,0,1-4.41.324,11.464,11.464,0,0,1-3.15-.342,2.37,2.37,0,0,1-1.854-2.232c0-1.566,1.458-2.5,3.888-2.5a8.523,8.523,0,0,1,5.616,1.98l.99-.594c-.882-1.242-1.026-1.476-1.8-2.718l-.756-1.206-.252-.45c-.216-.4-.324-.63-.612-1.188l.414-.018.4-.018,1.548-.072c1.1-.054,1.71-.09,1.854-.09l.63-.036v-1.116c-1.206.09-1.764.126-2.466.162-.648.036-1.278.054-1.908.09l-.468.018-.468.018-.09-.18c-.342-.846-.522-1.314-.99-2.736l-.072-.216-1.278.162a29.623,29.623,0,0,0,1.188,3.024l-.864.036c-1.566.054-1.8.054-3.132.09l-2.214.018-.792.018h-.36l.036,1.17.378-.018.846-.018,2.358-.072,2.052-.072,1.116-.054Zm15.246-3.96-.342.81-.63,1.548c-1.26,2.988-1.98,4.824-3.294,8.37-.5,1.386-.882,2.412-1.116,3.042l1.116.522a27.96,27.96,0,0,1,1.908-4.68c.882-1.53,2.286-2.646,3.348-2.646.648,0,.972.522.972,1.494,0,.36-.018.648-.108,2-.036.576-.054,1.152-.054,1.386a2.24,2.24,0,0,0,2.484,2.484,3.467,3.467,0,0,0,2.106-.72,5.158,5.158,0,0,0,1.8-2.772,13.78,13.78,0,0,0,.684-3.222c.018-.108.09-.486.144-.9l-1.188-.378c-.288,2.9-.576,4.212-1.152,5.2a3.048,3.048,0,0,1-2.376,1.674c-.846,0-1.278-.468-1.278-1.386,0-.414.018-.774.054-1.71.018-.666.036-1.152.036-1.548,0-1.89-.648-2.754-2.052-2.754-1.134,0-1.818.432-3.024,1.89a62.144,62.144,0,0,1,3.186-7.236Zm20.3,14.022a9.541,9.541,0,0,0,4.518-1.422,5.652,5.652,0,0,0,2.394-4.932A6.671,6.671,0,0,0,356.706,133a6.478,6.478,0,0,0-5.058-2.034c-4.7,0-8.064,3.078-8.064,7.362,0,2.826,1.494,4.878,3.582,4.878,1.368,0,2.25-.936,3.114-3.384a34.99,34.99,0,0,0,1.692-7.776,5.285,5.285,0,0,1,3.528,1.386,5.231,5.231,0,0,1,1.62,4.05c0,3.258-1.908,4.878-6.174,5.274Zm-.684-11.808a33.757,33.757,0,0,1-.972,5.328c-.846,3.168-1.674,4.608-2.646,4.608-1.332,0-2.358-1.692-2.358-3.906a5.531,5.531,0,0,1,2.178-4.518A6.315,6.315,0,0,1,350.766,132.1ZM1.386,169.5H16.65v-1.224H1.386Zm18.63-7.092v12.2l-.576.036-.63.036.162,1.116c3.276-.252,5.184-.468,8.3-.936V173.84c-.45.072-.522.09-.99.162V162.41Zm5.238,8.6v3.114c-1.188.126-3.24.324-4.212.378v-3.492Zm-4.212-.936v-2.952h4.212v2.952Zm0-3.888V163.4h4.212v2.79Zm8.46-.5a35.949,35.949,0,0,1-.558,5.616,10.791,10.791,0,0,1-2.574,5.256l.99.648c2.34-2.97,3.024-5.418,3.258-11.52h2.646c.018.324.018.594.018.738,0,2.394-.18,6.516-.36,7.9-.144,1.152-.288,1.368-.972,1.368-.45,0-1.458-.072-2.214-.144l.378,1.134.288.018c1.188.072,1.188.072,1.53.072,1.476,0,1.854-.432,2.052-2.34.18-1.728.252-3.546.324-8.676l.036-1.1H30.672c.054-1.53.072-1.926.072-3.222H29.556l.018,1.278c0,.612-.018,1.008-.036,1.944H26.946v1.026Zm9.774-3.24a54.563,54.563,0,0,0-.63,8.334c0,1.566.054,3.186.162,5.166l1.3-.072c-.18-1.656-.288-3.87-.306-5.868v-.2a49.333,49.333,0,0,1,.666-7.218Zm4.122,6.606a6.226,6.226,0,0,0-1.35,3.4,2.475,2.475,0,0,0,1.566,2.2,10.251,10.251,0,0,0,4.32.594c1.584,0,2.664-.054,4.068-.18l-.036-1.242a41.888,41.888,0,0,1-4.68.252c-2.844,0-4.032-.54-4.032-1.872,0-.666.288-1.314,1.206-2.7Zm-.774-3.8c3.852-.054,4.842-.09,8.55-.234v-1.206c-.828.018-.936.036-1.368.054-1.062.054-1.782.072-2.2.09-1.782.054-2.7.072-4.986.072Zm21.222-.378a18.783,18.783,0,0,1,5.8,1.458l.18-1.224a20.954,20.954,0,0,0-5.814-1.314Zm-7.758.756c.576-.018.738-.018,2.826-.126a30.346,30.346,0,0,1-3.276,8.262l1.152.648a41.229,41.229,0,0,0,3.312-8.964c1.476-.126,1.818-.144,2.844-.252l-.072-1.206c-.9.126-1.242.162-2.484.288.234-1.008.324-1.4.486-2.3l-1.242-.108c-.09.63-.216,1.386-.45,2.5-1.062.036-1.548.054-2.9.054h-.252Zm10.836,1.44-1.17.036.018.162.018.306.09,1.458.108,1.53c0,.126.018.468.054.972a7.6,7.6,0,0,0-2.484-.432c-2,0-3.294,1.044-3.294,2.628a2.343,2.343,0,0,0,1.08,2,4.088,4.088,0,0,0,2.358.558,4.077,4.077,0,0,0,2.664-.684,2.567,2.567,0,0,0,.864-2.3,13.145,13.145,0,0,1,2.556,1.872l.666-1.1-.2-.144A17.16,17.16,0,0,0,67.212,172c-.036-.576-.054-1.152-.072-1.332,0-.288-.054-1.044-.126-2.142l-.054-1.008Zm-.846,5.688a5.3,5.3,0,0,1-.108,1.314c-.216.684-.99,1.08-2.124,1.08-1.566,0-2.412-.522-2.412-1.494,0-.9.792-1.494,1.962-1.494A6.733,6.733,0,0,1,66.078,172.76Zm9.864-8.82c1.17-.036,1.4-.036,2.268-.09s1.134-.072,4.068-.234l1.26-.072c-.45.4-.774.666-.918.81l-1.188.972a88.349,88.349,0,0,1-7.146,5.634l.72,1.152c.666-.558.864-.738,2.25-1.89a7.19,7.19,0,0,1,2.106-1.152,8.864,8.864,0,0,1,3.078-.54c2.448,0,3.816,1.134,3.816,3.168a2.974,2.974,0,0,1-1.026,2.322,4.029,4.029,0,0,1-1.728.918,5.288,5.288,0,0,0-1.08-2.3,3.428,3.428,0,0,0-2.646-1.3,2.293,2.293,0,0,0-2.538,2.214c0,1.746,1.458,2.736,4.05,2.736,3.69,0,6.156-1.854,6.156-4.608a3.9,3.9,0,0,0-1.656-3.276,5.439,5.439,0,0,0-3.222-.828,6.887,6.887,0,0,0-2.718.5l.918-.774,1.44-1.206c1.44-1.224,2-1.71,3.2-2.718v-.972c-3.942.234-6.174.324-9.468.378Zm6.426,11.2c-.576.036-.882.054-1.26.054-1.728,0-2.79-.648-2.79-1.692a1.2,1.2,0,0,1,1.332-1.17,2.635,2.635,0,0,1,2.052,1.1A3.316,3.316,0,0,1,82.368,175.136ZM98.3,161.942c.072.972.072,1.188.108,2.43l.054,1.872c.09,2.952.09,2.97.108,4.932a11.5,11.5,0,0,0-2.268-.234c-2.394,0-3.834.99-3.834,2.61,0,1.692,1.548,2.808,3.888,2.808a4.145,4.145,0,0,0,2.592-.72,2,2,0,0,0,.792-1.818c0-.162-.018-.558-.036-1.242a18.744,18.744,0,0,1,5.13,2.754l.81-1.116a20.82,20.82,0,0,0-5.94-2.772v-.864l-.018-1.53-.018-1.458-.018-1.08.864-.036c1.422-.036,2.268-.054,2.556-.072.792-.018.936-.036,1.764-.072v-1.152c-1.782.108-4.14.2-5.22.2-.018-.864-.018-1.044-.036-1.584v-1.854Zm.27,10.332s.018.72.018.846c0,.954-.09,1.368-.4,1.6a3.149,3.149,0,0,1-2.016.522c-1.512,0-2.52-.666-2.52-1.656,0-1.062.864-1.566,2.628-1.566A9.55,9.55,0,0,1,98.568,172.274Zm15.174,4.086c5.85-.252,8.946-2.448,8.946-6.372a4.057,4.057,0,0,0-4.338-4.41,31.93,31.93,0,0,0-7.218,1.26l.288,1.314a21.975,21.975,0,0,1,6.768-1.386,2.948,2.948,0,0,1,3.294,3.24,4.45,4.45,0,0,1-3.132,4.3,12.355,12.355,0,0,1-4.446.756h-.522Zm6.858-14.2c-.63.036-2.448.072-3.042.072-.918,0-1.872-.054-3.978-.216l.036,1.17c1.206.09,2.988.144,4.248.144.774,0,1.728-.018,2.736-.072Zm6.12,10.782a26.159,26.159,0,0,1,3.852,4.536l1.008-.9a27.282,27.282,0,0,0-3.978-4.446Zm21.8-6.21a16.251,16.251,0,0,1-3.618,6.084l.63,1.17a18.983,18.983,0,0,0,3.132-5.13v8.19h1.08v-7.9a22.053,22.053,0,0,0,2.25,2.916l.54-1.08a18.578,18.578,0,0,1-2.808-3.366v-.882h2.934v-1.044h-2.916v-2.664c1.422-.2,2.052-.306,2.628-.432l-.666-.9a46.063,46.063,0,0,1-6.246.7l.5.972c1.134-.072,1.836-.126,2.7-.216v2.538h-3.4v1.044Zm2.772,9.162c1.17-.09,2.124-.216,6.678-.81.2-.018.756-.108,1.368-.2.18.63.2.72.342,1.386l1.08-.54a50.273,50.273,0,0,0-2.97-8.352l-.972.414a49.364,49.364,0,0,1,2.3,6.21c-1.35.2-3.942.468-5.688.594a77.989,77.989,0,0,0,2.718-12.474l-1.224-.144a72.356,72.356,0,0,1-2.538,12.726c-.684.036-.774.054-1.494.072ZM164,165.722c1.224-.054,1.6-.072,3.06-.09a40.262,40.262,0,0,1-3.132,9.828l1.224.522a55.367,55.367,0,0,0,3.132-10.386l.648-.018,1.116-.054.666-.018v-1.17c-.594.036-.792.054-1.548.09-.108.018-.378.018-.684.036.18-.882.216-1.08.45-2.628l-1.3-.09c-.09.954-.234,2-.36,2.772h-.558c-1.71.054-1.8.054-2.07.054h-.72Zm6.156,4.806a5.9,5.9,0,0,0-.99,2.754,2.15,2.15,0,0,0,1.44,2.106,12.621,12.621,0,0,0,4.14.5,28.6,28.6,0,0,0,3.618-.216v-1.224a26.247,26.247,0,0,1-3.636.27c-3.15,0-4.374-.45-4.374-1.62a4.561,4.561,0,0,1,.972-2.466Zm1.674-3.816c1.314-.018,1.4-.018,1.8-.018,1.044,0,2.556.054,3.8.144l.036-1.224c-1.35-.09-2.556-.126-3.456-.126-.522,0-1.188.018-2.142.054Zm15.3-4.986c-.108.612-.45,2.07-.684,2.916l-.36.018c-1.1.018-1.458.018-1.8.018s-.45,0-2.2-.036v1.116h.792l1.26-.018,1.242-.036h.738a28.111,28.111,0,0,1-2.466,5.634l.9.612a8.414,8.414,0,0,1,2.322-1.71,8.681,8.681,0,0,1,3.816-1.116c2,0,3.348,1.1,3.348,2.718a2.938,2.938,0,0,1-2.232,2.7,9.758,9.758,0,0,1-3.546.45,28.034,28.034,0,0,1-3.546-.216l.2,1.224c1.242.072,2.16.108,3.06.108a12.289,12.289,0,0,0,4.806-.684,3.944,3.944,0,0,0,2.466-3.636,3.612,3.612,0,0,0-1.35-2.808,4.405,4.405,0,0,0-2.97-.9,8.247,8.247,0,0,0-2.916.522,7.4,7.4,0,0,0-2.322,1.3,26.122,26.122,0,0,0,1.674-4.194l1.332-.036c3.87-.072,5.058-.108,6.75-.18v-1.1c-1.854.126-4.716.216-7.758.252.2-.576.558-1.908.774-2.808Zm25.614,2.016a17.065,17.065,0,0,0-1.44-2.466l-1.062.36a16.4,16.4,0,0,1,1.4,2.43Zm-.018-2.628a16.455,16.455,0,0,1,1.44,2.5l1.1-.324a15.419,15.419,0,0,0-1.494-2.52Zm-8.28.486c-.162,1.35-.2,1.62-.522,3.384-1.4.162-1.566.18-3.816.5l.108,1.152c.666-.144,2.394-.432,3.492-.576-1.188,4.59-2.124,7.02-3.6,9.432l1.134.864a42.39,42.39,0,0,0,3.654-10.422,18.469,18.469,0,0,1,1.962-.108,2.045,2.045,0,0,1,1.566.468c.378.36.5.846.5,1.98a20.436,20.436,0,0,1-.7,5.526c-.234.756-.612,1.08-1.278,1.08a11.852,11.852,0,0,1-2.538-.378l.306,1.3a13.965,13.965,0,0,0,2.286.288c1.3,0,2.016-.576,2.412-2.016a23.73,23.73,0,0,0,.72-5.94c0-2.376-.9-3.384-3.024-3.384-.594,0-.756.018-2.016.108.234-.99.45-2.124.594-3.15Zm6.462,3.51a16.185,16.185,0,0,1,2.592,7.128l1.26-.4a19.263,19.263,0,0,0-2.718-7.182Zm6.588,11.61a37.431,37.431,0,0,0,3.078-2.358c1.476,2.088,2.718,2.484,7.434,2.43h2.214c.414,0,.954,0,2.52-.036l.414-1.152c-3.474.108-5.724.162-7.2.162a6.836,6.836,0,0,1-3.1-.5,4.136,4.136,0,0,1-1.818-1.674V167.54h-3.888v1.026h2.808v5.058a26.576,26.576,0,0,1-2.88,2.034Zm.432-14.292A24.414,24.414,0,0,1,220.734,165l.81-.792a17.359,17.359,0,0,0-2.826-2.556Zm3.564,4.032h11.124v-.828H227.5v-.81h4.14v-2.574H227.5V161.1h-.936v1.152h-3.978v2.574h3.978v.81H221.49Zm1.98-2.394v-1.044h3.1v1.044Zm4.032,0v-1.044h3.222v1.044ZM223.326,175.1a13.2,13.2,0,0,0,2.736-1.494l-.72-.684h3.24l-.558.576a17.581,17.581,0,0,0,3.636,1.728l.738-.81a19.664,19.664,0,0,1-3.42-1.494H231.1v-5.76H222.93v5.76h2.358a10.811,10.811,0,0,1-2.736,1.368Zm.54-2.988v-.9h6.3v.9Zm0-1.656v-.972h6.3v.972Zm0-1.692v-.828h6.3v.828Zm14.922-7.488A18.607,18.607,0,0,1,234.7,169l.4,1.26a11.613,11.613,0,0,0,1.836-2.3v8.964h1.1v-10.71a21.293,21.293,0,0,0,1.854-4.788Zm.288,7.236h3.474a46.026,46.026,0,0,1-1.98,6.66c-.7.018-.81.018-1.494.018l.4,1.17.828-.072c3.834-.252,5.112-.36,8.964-.792.234.63.252.72.45,1.35l1.17-.5a25.388,25.388,0,0,0-3.456-6.714l-1.008.522a23.327,23.327,0,0,1,2.5,4.356c-1.566.234-5.238.558-7.326.63a53.75,53.75,0,0,0,2.16-6.624H250.9v-1.08H239.076Zm1.17-5h9.648v-1.08h-9.648Zm13.086,6.264h7.254v5.148c0,.81-.018.81-1.224.81-.468,0-.738-.018-1.854-.072l.342,1.17c1.008.072,1.53.108,2,.108,1.548,0,1.872-.288,1.872-1.638v-5.526H268.7v-1.08H261.72v-1.71a47.428,47.428,0,0,0,5.634-3.636v-.936H254.826v1.044h10.512a34.929,34.929,0,0,1-4.752,3.078v2.16h-7.254Zm20.034-4.05a14.078,14.078,0,0,1-2.97,5.9l.576,1.206a16.975,16.975,0,0,0,2.484-4.158V177.3h.99v-8.712a16.62,16.62,0,0,0,1.656,2.844l.54-1.152a16.931,16.931,0,0,1-2.2-3.366v-1.188h1.908v-.99h-1.908v-3.51h-.99v3.51H270.99v.99Zm2.9,11.538c3.042-.738,4.932-2.106,5.418-3.96,1.206,1.764,2.034,2.448,4.716,3.87l.7-.972a9.052,9.052,0,0,1-4.716-3.654h3.708v-4.59h-4.05v-1.386h2.484v-.828a15.871,15.871,0,0,0,2.214,1.548l.576-1.08a13.043,13.043,0,0,1-5.31-4.86h-1.35a12.1,12.1,0,0,1-4.734,5.2l.684.936a14.34,14.34,0,0,0,2-1.656v.738h2.412v1.386h-3.96v4.59h3.8c-.468,1.908-1.782,2.862-5.184,3.816Zm1.782-5.652v-2.682h2.97v2.682Zm.846-6.066a11.765,11.765,0,0,0,2.448-3.222,17.019,17.019,0,0,0,2.97,3.222Zm3.15,6.066v-2.682h3.024v2.682Zm13.482-7.344a18.774,18.774,0,0,1-6.552,5.418l.7.9a27.431,27.431,0,0,0,2.754-1.854v6.822H289.17v.972H304.9v-.972h-3.258v-7.038a20.645,20.645,0,0,0,2.862,1.728l.666-.9a19.867,19.867,0,0,1-6.75-5.076h6.21v-.972h-7.038V161.15h-1.1v2.142H289.53v.972Zm-2.052,11.286V173.8h7.092v1.746Zm0-2.664v-1.692h7.092v1.692Zm0-2.61v-1.512h7.092v1.512Zm3.024-2.448h-3.024a15.274,15.274,0,0,0,3.024-3.294Zm1.1,0v-3.186a14.166,14.166,0,0,0,3.2,3.186Zm11.106-2.592c.72-.018,1.008-.018,1.818-.054.612-.018,1.116-.036,1.224-.036l.468-.018.234-.018a23.457,23.457,0,0,1-4.446,5.9l.954.882a14.269,14.269,0,0,1,2.43-2.556A5.666,5.666,0,0,1,315,167.774c1.044,0,1.422.378,1.584,1.566a19.95,19.95,0,0,0-2.592,1.1c-1.926.99-2.826,2.034-2.826,3.276a2.493,2.493,0,0,0,1.566,2.268,8.373,8.373,0,0,0,3.474.486c1.566,0,3.42-.108,5.238-.288v-1.242a38.153,38.153,0,0,1-5.2.432,9.234,9.234,0,0,1-2.628-.27,1.6,1.6,0,0,1-1.26-1.476c0-1.17,1.368-2.178,4.356-3.24v.2c.036.99.036,1.314.036,1.782,0,.36,0,.5-.018,1.278h1.134c.018-.342.018-.594.018-.738,0-1.224-.018-1.836-.072-2.844,1.8-.5,1.962-.54,4.32-1.062l-.09-1.062a39.653,39.653,0,0,0-4.14.972l-.2.054a2.347,2.347,0,0,0-2.646-2.214,4.534,4.534,0,0,0-3.312,1.368c.882-1.278,1.35-1.98,1.98-3.006h.414l.954-.036,2.628-.09,2.232-.072c.072,0,.468,0,.972-.018l-.036-1.134-1.062.054-1.476.072c-.846.036-1.44.054-1.782.072-.756.018-.81.018-1.944.054l-.342.018c.576-1.188.738-1.566,1.062-2.34l-1.278-.09a17.511,17.511,0,0,1-1.044,2.484c-.54.018-.7.018-.882.018H310.95l-1.224.018h-1.1Zm16.974,1.584h3.4v4.716h1.242V166.82h5.364c.018,3.762-.234,4.86-1.4,6.156-1.062,1.17-3.1,1.854-5.9,1.98l.468,1.206c2.682-.27,4.842-.99,5.958-1.98,1.746-1.674,2.142-3.078,2.088-7.362h3.51v-1.152h-3.51v-3.816h-1.242v3.816h-5.328V162.05h-1.242v3.618h-3.4Zm31.554-6.336a1.917,1.917,0,1,0,1.89,1.908A1.917,1.917,0,0,0,357.228,160.484Zm-.054.72a1.2,1.2,0,1,1-1.17,1.188A1.207,1.207,0,0,1,357.174,161.2Zm-10.458,6.678a19.733,19.733,0,0,1-3.132,6.444l1.134.9a21.668,21.668,0,0,0,3.186-7ZM344,165.992h6.282V176.54h1.3V165.992H358V164.84h-6.426v-3.078h-1.3v3.078H344Zm10.17,2.286c.288.54.324.612.486.9a38.274,38.274,0,0,1,2.484,5.58l1.224-.63a43.8,43.8,0,0,0-3.042-6.39ZM1.638,201.844H16.344v-1.35H1.638Zm22.428,6.48h1.206v-8.082a25.328,25.328,0,0,1,6.8,3.132l.828-1.224a34.731,34.731,0,0,0-7.632-3.132v-4.9H24.066Zm14.652-13.14-.018.81-.036,1.638c-.054,1.872-.054,1.872-.054,2.538,0,2.736.216,4.3.774,5.526.576,1.26,1.4,2.124,2.034,2.124.972,0,2.052-1.422,3.834-5.058l-.828-.954c-1.476,2.952-2.52,4.518-2.988,4.518-.342,0-.72-.486-1.044-1.368a14.1,14.1,0,0,1-.612-4.77c0-1.008.108-3.078.234-4.878Zm8.694,1.6a12.986,12.986,0,0,1,3.33,8.856l1.368-.162a14.15,14.15,0,0,0-3.636-9.36Zm8.586.936c1.224-.054,1.6-.072,3.06-.09a40.262,40.262,0,0,1-3.132,9.828l1.224.522A55.367,55.367,0,0,0,60.282,197.6l.648-.018,1.116-.054.666-.018v-1.17c-.594.036-.792.054-1.548.09-.108.018-.378.018-.684.036.18-.882.216-1.08.45-2.628l-1.3-.09c-.09.954-.234,2-.36,2.772h-.558c-1.71.054-1.8.054-2.07.054h-.72Zm6.156,4.806a5.9,5.9,0,0,0-.99,2.754,2.15,2.15,0,0,0,1.44,2.106,12.621,12.621,0,0,0,4.14.5,28.6,28.6,0,0,0,3.618-.216v-1.224a26.247,26.247,0,0,1-3.636.27c-3.15,0-4.374-.45-4.374-1.62a4.561,4.561,0,0,1,.972-2.466Zm1.674-3.816c1.314-.018,1.4-.018,1.8-.018,1.044,0,2.556.054,3.8.144l.036-1.224c-1.35-.09-2.556-.126-3.456-.126-.522,0-1.188.018-2.142.054Zm12.384-4.41v9.81a3.809,3.809,0,0,0,.936,2.718,4.378,4.378,0,0,0,3.348,1.332,7.128,7.128,0,0,0,4.9-1.6c1.242-1.116,1.692-2.322,2.016-5.346l-1.278-.432a7.85,7.85,0,0,1-.954,4.086,5.011,5.011,0,0,1-4.392,2.034c-2.106,0-3.294-1.062-3.294-2.934V194.3Zm16.056,6.372c.72-.018,1.386-.018,1.4-.018l2.052-.036,1.944-.036,1.224-.018.036,2.736a8.225,8.225,0,0,0-2-.234c-2.286,0-3.87,1.044-3.87,2.592a2.605,2.605,0,0,0,1.278,2.124,5.241,5.241,0,0,0,2.43.5c1.458,0,2.448-.324,2.916-.954.378-.5.432-.864.432-2.646a17.923,17.923,0,0,1,4.842,2.628l.864-.954a19.985,19.985,0,0,0-5.742-2.808l-.036-2.988c2.7-.036,3.456-.054,5.814-.144v-1.08l-.9.036c-3.582.09-3.6.09-4.914.108V197l.846-.018,1.566-.018,1.746-.036.828-.036V195.76c-.45.018-.738.018-.882.018l-1.638.054-1.584.036c-.09,0-.432,0-.918.018l-.036-2.106H98.8l.036,2.124H97.812l-1.782.018-1.926.018H92.988v1.17l1.134-.018c.27,0,.99-.018,1.746-.036l1.908-.036L98.892,197v2.5l-1.188.018-2.412.018H92.268Zm6.7,4.194a3.971,3.971,0,0,1-.252,1.692c-.252.432-.936.648-2.088.648-1.566,0-2.394-.5-2.394-1.458,0-1.008.972-1.62,2.556-1.62a11.924,11.924,0,0,1,2.16.234s0,.072.018.252Zm19.008-8.8-.9.018c-1.6.036-1.854.036-3.078.036-1.62,0-2.484-.018-4.284-.054v1.152c1.44.018,1.44.018,1.692.018.666,0,.666,0,4.446-.036l1.1-.018,1.116-.018v2.088a4.164,4.164,0,0,0-2.286-.63,3,3,0,0,0-3.168,2.9,2.858,2.858,0,0,0,3.024,2.826,3.56,3.56,0,0,0,2.484-.954,1.957,1.957,0,0,0,.576-.99c.018.234.018.4.018.522,0,2.9-1.98,4.23-6.372,4.338l.486,1.206a10.193,10.193,0,0,0,4.428-.99,4.709,4.709,0,0,0,2.5-4.374,5.9,5.9,0,0,0-.54-2.52v-3.438l.306-.018h.288l1.89-.036c.324-.018,1.026-.036,1.782-.054l.828-.036v-1.17l-1.17.054-.882.054c-.558.018-1.008.054-1.314.054-.522.018-.774.036-1.4.054h-.324V193.78h-1.242Zm-1.962,3.51a1.777,1.777,0,0,1,2,1.674,2.232,2.232,0,0,1-2.25,2.052,1.811,1.811,0,0,1-1.98-1.8A1.975,1.975,0,0,1,116.01,199.576Zm13.824,4.536a2.187,2.187,0,1,1-2.16,2.178A2.193,2.193,0,0,1,129.834,204.112Zm.072-.792a2.979,2.979,0,1,0,2.934,2.97A2.981,2.981,0,0,0,129.906,203.32Z" transform="translate(-0.828 -0.772)" fill="#001e62"/>
</svg>
