<svg xmlns="http://www.w3.org/2000/svg" width="48.6" height="46.116" viewBox="0 0 48.6 46.116">
  <path id="kv_title_sa" d="M22.572-35.208A56.322,56.322,0,0,1,2.916-18.954l2.106,2.7a82.289,82.289,0,0,0,8.262-5.562V-1.35H3.51V1.566h47.2V-1.35H40.932V-22.464a61.939,61.939,0,0,0,8.586,5.184l2-2.7a59.6,59.6,0,0,1-20.25-15.228H49.9v-2.916H28.782V-44.55H25.488v6.426H4.59v2.916ZM16.416-1.35V-6.588H37.692V-1.35Zm0-7.992v-5.076H37.692v5.076Zm0-7.83v-4.536H37.692v4.536Zm9.072-7.344H16.416c3.456-2.808,5.454-4.968,9.072-9.882Zm3.294,0v-9.558a42.5,42.5,0,0,0,9.612,9.558Z" transform="translate(-2.916 44.55)" fill="#fff"/>
</svg>
