<svg xmlns="http://www.w3.org/2000/svg" width="39.474" height="41.634" viewBox="0 0 39.474 41.634">
  <path id="kv_title_ru" d="M11.826-36.18c3.51-.108,4.212-.108,6.8-.27s3.4-.216,12.2-.7l3.78-.216c-1.35,1.188-2.322,2-2.754,2.43L28.3-32.022c-9.5,8.046-17.334,14.256-21.438,16.9l2.16,3.456c2-1.674,2.592-2.214,6.75-5.67a21.571,21.571,0,0,1,6.318-3.456,26.591,26.591,0,0,1,9.234-1.62c7.344,0,11.448,3.4,11.448,9.5A8.922,8.922,0,0,1,39.69-5.94a12.086,12.086,0,0,1-5.184,2.754,15.865,15.865,0,0,0-3.24-6.912,10.284,10.284,0,0,0-7.938-3.888c-4.482,0-7.614,2.754-7.614,6.642,0,5.238,4.374,8.208,12.15,8.208C38.934.864,46.332-4.7,46.332-12.96a11.7,11.7,0,0,0-4.968-9.828c-2.376-1.674-5.508-2.484-9.666-2.484a20.661,20.661,0,0,0-8.154,1.512L26.3-26.082l4.32-3.618c4.32-3.672,5.994-5.13,9.612-8.154V-40.77c-11.826.7-18.522.972-28.4,1.134ZM31.1-2.592c-1.728.108-2.646.162-3.78.162-5.184,0-8.37-1.944-8.37-5.076,0-2.052,1.62-3.51,4-3.51a7.905,7.905,0,0,1,6.156,3.294A9.948,9.948,0,0,1,31.1-2.592Z" transform="translate(-6.858 40.77)" fill="#001e62"/>
</svg>
