<svg xmlns="http://www.w3.org/2000/svg" width="50.76" height="48.222" viewBox="0 0 50.76 48.222">
  <path id="kv_title_ken" d="M10.1-30.834c-1.026,5.562-4.374,12.15-8.91,17.712L2.916-9.5a50.928,50.928,0,0,0,7.452-12.474V3.888h2.97V-22.248a49.862,49.862,0,0,0,4.968,8.532l1.62-3.456a50.794,50.794,0,0,1-6.588-10.1v-3.564h5.724V-33.8H13.338v-10.53h-2.97V-33.8H2.97v2.97ZM18.792,3.78c9.126-2.214,14.8-6.318,16.254-11.88,3.618,5.292,6.1,7.344,14.148,11.61L51.3.594c-6.534-2.538-11.664-6.48-14.148-10.962H48.276v-13.77H36.126V-28.3h7.452V-30.78a47.611,47.611,0,0,0,6.642,4.644l1.728-3.24c-7.236-3.888-13.122-9.288-15.93-14.58h-4.05c-1.836,5.13-8.64,12.582-14.2,15.606l2.052,2.808a43.023,43.023,0,0,0,5.994-4.968V-28.3h7.236v4.158H21.168v13.77H32.562C31.158-4.644,27.216-1.782,17.01,1.08Zm5.346-16.956v-8.046h8.91v8.046Zm2.538-18.2A35.294,35.294,0,0,0,34.02-41.04a51.052,51.052,0,0,0,8.91,9.666Zm9.45,18.2v-8.046H45.2v8.046Z" transform="translate(-1.188 44.334)" fill="#fff"/>
</svg>
