<svg xmlns="http://www.w3.org/2000/svg" width="47.952" height="47.196" viewBox="0 0 47.952 47.196">
  <path id="kv_title_ka" d="M5.94-5.94A44.628,44.628,0,0,0,17.388-12.1,36.138,36.138,0,0,0,24.57-5.67C18.954-2.916,11.664-1.188,3.024-.54L5.616,2.646c8.532-1.188,16.2-3.4,21.87-6.318a64.694,64.694,0,0,0,20.52,6.048L50.976-.7c-8.694-.972-14.9-2.484-20.25-4.968C35.91-9.936,38.5-12.636,41.2-16.524H21.978a15.555,15.555,0,0,0,1.728-2.268l-3.564-.648c-4.1,5.346-8.694,8.37-16.578,10.962Zm28.944-7.668A36.54,36.54,0,0,1,27.54-7.29a33.839,33.839,0,0,1-7.452-6.318Zm-22.9-18.684A28.389,28.389,0,0,1,3.456-22.68l2.808,2.214a33.668,33.668,0,0,0,8.748-10.422Zm-7.776-3.24H20.9c.054,6.48-.432,8.37-2.808,10.8a24.83,24.83,0,0,1-7.722,5.022l2.538,2.538c9.45-5.022,11.448-8.316,11.232-18.36H29.97v11.5c0,1.512-.378,1.836-2.052,1.836-1.188,0-2.322-.054-3.888-.162l1.4,3.294c2.214.108,2.592.108,2.97.108,3.51,0,4.806-.972,4.806-3.51V-35.532H49.734V-38.61H28.566v-5.94H25.11v5.94H4.212Zm32.832,5.238a54.39,54.39,0,0,0,9.4,10.206l2.484-2.484a53.886,53.886,0,0,1-9.234-9.666Z" transform="translate(-3.024 44.55)" fill="#001e62"/>
</svg>
