<svg xmlns="http://www.w3.org/2000/svg" width="46.926" height="47.628" viewBox="0 0 46.926 47.628">
  <path id="kv_title_chi" d="M3.4-27.054a75.036,75.036,0,0,1,9.882,7.236l2.052-2.916a87.841,87.841,0,0,0-9.882-7.074ZM13.068-17.5A115.336,115.336,0,0,1,4.374.81L7.722,3.24a156.062,156.062,0,0,0,8.424-18.684ZM7.128-40.662A67.775,67.775,0,0,1,16.74-32.94l2.376-2.808A79.693,79.693,0,0,0,9.45-43.416ZM17.01-26.946l.972,3.4L45.468-25.6c.918,1.62,1.026,1.836,1.782,3.348l3.078-2c-2.916-5.346-4.86-8.1-10.422-14.742l-2.754,1.944c.324.432.648.864.972,1.242,1.3,1.566,2.052,2.538,2.592,3.132.972,1.3,1.566,2.106,3.024,4.212l-18.792,1.3A125.591,125.591,0,0,0,32.022-43.2l-3.834-.594a131.008,131.008,0,0,1-6.48,16.686Zm3.564,30.78h3.294V1.512h19.6v2.16h3.456V-18.9H20.574Zm3.294-5.616V-15.66h19.6V-1.782Z" transform="translate(-3.402 43.794)" fill="#fff"/>
</svg>
