<svg xmlns="http://www.w3.org/2000/svg" width="48.222" height="47.102" viewBox="0 0 48.222 47.102">
  <path id="kv_title_i" d="M4.482,2.16a112.28,112.28,0,0,0,9.234-7.074c4.428,6.264,8.154,7.452,22.3,7.29H42.66c1.242,0,2.862,0,7.56-.108l1.242-3.456C41.04-.864,34.29-.7,29.862-.7c-4.482,0-7.02-.432-9.288-1.512A12.408,12.408,0,0,1,15.12-7.236V-25.38H3.456V-22.3H11.88V-7.128a79.725,79.725,0,0,1-8.64,6.1Zm1.3-42.876A73.246,73.246,0,0,1,14.2-32.994l2.43-2.376a52.079,52.079,0,0,0-8.478-7.668ZM16.47-28.62H49.842V-31.1H34.506v-2.43h12.42v-7.722H34.506v-3.456H31.7v3.456H19.764v7.722H31.7v2.43H16.47ZM22.41-35.8v-3.132H31.7V-35.8Zm12.1,0v-3.132h9.666V-35.8ZM21.978-2.7a39.592,39.592,0,0,0,8.208-4.482l-2.16-2.052h9.72L36.072-7.506A52.743,52.743,0,0,0,46.98-2.322l2.214-2.43a58.988,58.988,0,0,1-10.26-4.482h6.372v-17.28H20.79v17.28h7.074a32.434,32.434,0,0,1-8.208,4.1Zm1.62-8.964v-2.7H42.5v2.7Zm0-4.968v-2.916H42.5v2.916Zm0-5.076v-2.484H42.5v2.484Z" transform="translate(-3.24 44.712)" fill="#fff"/>
</svg>
