<svg xmlns="http://www.w3.org/2000/svg" width="43.686" height="44.226" viewBox="0 0 43.686 44.226">
  <path id="kv_title_wa" d="M5.454-29.43l1.566-.054,4-.162,3.834-.108c.216,0,.756,0,1.512-.054v4.482c-3.834,4.968-4.266,5.562-5.616,7.452-1.3,1.89-3.186,4.7-5.832,8.586L7.236-6.156A155.209,155.209,0,0,1,16.362-20.2c-.162,5.67-.162,5.886-.27,10.368-.162,7.074-.162,7.182-.324,11.394h3.726c-.054-6.21-.054-6.75-.054-8.154,0-1.35,0-1.35.162-11.988l.054-5.076c5.562-6.534,10.368-9.4,15.768-9.4,6.1,0,9.774,5.022,9.774,13.23,0,6.8-2,10.8-6.588,13.284-2.916,1.62-6.1,2.214-14.094,2.7L26.028-.216c6.966-.54,10.692-1.4,14.148-3.132C46.062-6.372,48.6-11.34,48.6-19.71c0-10.1-5.13-16.632-13.014-16.632a20.064,20.064,0,0,0-9.558,2.808c-2,1.188-3.456,2.43-6.426,5.454v-1.566l.108-3.24.162-3.888.108-3.78.054-2.106H16.47c-.054,1.026-.054,1.566-.054,2.268v.648c.054,2.106.054,3.348.054,3.78V-33.1c-.972.054-1.728.108-2,.108l-3.726.054-3.456.108H5.454Z" transform="translate(-4.914 42.66)" fill="#001e62"/>
</svg>
