<svg xmlns="http://www.w3.org/2000/svg" width="43.2" height="42.984" viewBox="0 0 43.2 42.984">
  <path id="kv_title_n" d="M21.438-42.336l-1.026,2.43-1.89,4.644c-3.78,8.964-5.94,14.472-9.882,25.11C7.128-5.994,5.994-2.916,5.292-1.026L8.64.54c2.592-7.506,4-10.962,5.724-14.04,2.646-4.59,6.858-7.938,10.044-7.938,1.944,0,2.916,1.566,2.916,4.482,0,1.08-.054,1.944-.324,5.994-.108,1.728-.162,3.456-.162,4.158C26.838-2,29.484.648,34.29.648a10.4,10.4,0,0,0,6.318-2.16c2.484-1.89,4.05-4.212,5.4-8.316,1.026-2.97,1.242-4.05,2.052-9.666.054-.324.27-1.458.432-2.7l-3.564-1.134c-.864,8.694-1.728,12.636-3.456,15.606C39.636-4.644,36.882-2.7,34.344-2.7S30.51-4.1,30.51-6.858c0-1.242.054-2.322.162-5.13.054-2,.108-3.456.108-4.644,0-5.67-1.944-8.262-6.156-8.262-3.4,0-5.454,1.3-9.072,5.67A186.422,186.422,0,0,1,25.11-40.932Z" transform="translate(-5.292 42.336)" fill="#fff"/>
</svg>
