<svg xmlns="http://www.w3.org/2000/svg" width="43.038" height="37.422" viewBox="0 0 43.038 37.422">
  <path id="kv_title_de" d="M34.344-29.376a74.426,74.426,0,0,1,3.888,7.29L41.31-23.22a69.865,69.865,0,0,0-4.05-7.344Zm7.236-1.782a65.648,65.648,0,0,1,4.158,7.56l2.916-1.08a52.229,52.229,0,0,0-4.212-7.506ZM46.6-38.61c-1.782.108-3.132.216-3.726.27l-5.076.27c-2.214.162-4.374.324-6.534.432L29-37.53c-3.618.216-6.642.324-9.612.486l-3.348.162c-1.89.054-3.348.162-4.266.162-2.43.108-3.24.108-6.156.162l.108,3.78,4.86-.324,9.774-.594,6.426-.378,3.348-.216c-4.752,3.24-5.94,4.212-7.614,6.318A17.84,17.84,0,0,0,18.2-16.524a14.143,14.143,0,0,0,6.1,11.88c3.456,2.484,7.668,3.456,14.526,3.456.972,0,2.538-.054,4.806-.162V-5.13a51.6,51.6,0,0,1-5.562.27c-5.454,0-8.91-.756-11.61-2.646a10.687,10.687,0,0,1-4.644-9.342c0-5.886,3.348-10.962,9.72-14.85,4.158-2.538,7.668-3.294,15.066-3.294Z" transform="translate(-5.616 38.61)" fill="#001e62"/>
</svg>
