<svg xmlns="http://www.w3.org/2000/svg" width="48.816" height="48.114" viewBox="0 0 48.816 48.114">
  <path id="kv_title_ryo" d="M10.53-22.032A72.4,72.4,0,0,1,1.62-17.55L2.592-14.2a58.865,58.865,0,0,0,7.938-4.86C10.584-11.34,8.262-4.752,3.672.54L5.724,3.348c5.508-6.858,7.83-13.176,7.938-21.654V-21.6L14.9-19.116c1.026-.378,1.026-.378,3.618-1.458v10.53h11.07v8.586c0,1.512-.27,1.782-1.782,1.782-.864,0-3.726-.216-5.076-.324l1.188,3.186c2.646.108,3.132.108,4.212.108,3.726,0,4.59-.648,4.59-3.294V-10.044H42.876V-21.762a40.36,40.36,0,0,0,6.048,2.268l1.512-2.43-.918-.324c-5.67-1.89-5.832-1.944-7.452-2.7A24.282,24.282,0,0,0,45.954-29l-2.808-1.35a21.761,21.761,0,0,1-3.51,4.1,19.635,19.635,0,0,1-6.48-4.914H49.464v-2.484H31.752v-3.564H48.978V-39.8H30.726v-4.968H27.432V-39.8H10.53v11.934a93.21,93.21,0,0,0-4.752-8.478L3.24-34.182a80.057,80.057,0,0,1,4.806,8.8l2.484-2.052Zm3.132-9.126H27.756a16.562,16.562,0,0,1-5.238,5.184l-3.726-4.1L16.578-28.3l3.4,3.834a31.614,31.614,0,0,1-6.318,2.43Zm0-2.484v-3.564H28.89v3.564Zm7.614,21.168v-4H39.96v4Zm0-6.318v-3.294H39.96v3.294Zm3.672-5.724A22.491,22.491,0,0,0,30.672-31a20.54,20.54,0,0,0,7.02,6.48ZM21.438-9.072A38.111,38.111,0,0,1,14.418.27l2.7,1.836A47.179,47.179,0,0,0,24.462-8.1ZM37.962-7.344a61.762,61.762,0,0,0,8.316,8.478l2.43-2.16c-2.43-2.16-2.592-2.322-4.266-3.834A45.062,45.062,0,0,1,40.5-9.288Z" transform="translate(-1.62 44.766)" fill="#fff"/>
</svg>
