<svg xmlns="http://www.w3.org/2000/svg" width="45.468" height="46.764" viewBox="0 0 45.468 46.764">
  <path id="kv_title_ga" d="M44.226-36.774a51.2,51.2,0,0,0-4.32-7.4l-3.186,1.08a49.209,49.209,0,0,1,4.212,7.29Zm-.054-7.884a49.368,49.368,0,0,1,4.32,7.506l3.294-.972a46.259,46.259,0,0,0-4.482-7.56ZM19.332-43.2c-.486,4.05-.594,4.86-1.566,10.152-4.212.486-4.7.54-11.448,1.512l.324,3.456c2-.432,7.182-1.3,10.476-1.728-3.564,13.77-6.372,21.06-10.8,28.3L9.72,1.08c4-7.074,8.1-18.792,10.962-31.266a55.415,55.415,0,0,1,5.886-.324c2.322,0,3.618.378,4.7,1.4,1.134,1.08,1.512,2.538,1.512,5.94A61.31,61.31,0,0,1,30.672-6.588c-.7,2.268-1.836,3.24-3.834,3.24a35.559,35.559,0,0,1-7.614-1.134l.918,3.888C25.866.27,25.866.27,27,.27c3.888,0,6.048-1.728,7.236-6.048A71.187,71.187,0,0,0,36.4-23.6c0-7.128-2.7-10.152-9.072-10.152-1.782,0-2.268.054-6.048.324.7-2.97,1.35-6.372,1.782-9.45ZM38.718-32.67a48.555,48.555,0,0,1,7.776,21.384l3.78-1.188A57.789,57.789,0,0,0,42.12-34.02Z" transform="translate(-6.318 45.684)" fill="#fff"/>
</svg>
