<svg xmlns="http://www.w3.org/2000/svg" width="48.6" height="46.926" viewBox="0 0 48.6 46.926">
  <path id="kv_title_den" d="M14.364-44.172C11.448-34.236,7.83-27.378,2.106-21.006l1.188,3.78A34.839,34.839,0,0,0,8.8-24.138V2.754H12.1v-32.13A63.879,63.879,0,0,0,17.658-43.74Zm.864,21.708H25.65a138.071,138.071,0,0,1-5.94,19.98c-2.106.054-2.43.054-4.482.054l1.188,3.51L18.9.864C30.4.108,34.236-.216,45.792-1.512c.7,1.89.756,2.16,1.35,4.05l3.51-1.512c-2.646-7.614-5.076-12.312-10.368-20.142L37.26-17.55A69.981,69.981,0,0,1,44.766-4.482c-4.7.7-15.714,1.674-21.978,1.89a161.254,161.254,0,0,0,6.48-19.872H50.706V-25.7H15.228Zm3.51-15.012H47.682v-3.24H18.738Z" transform="translate(-2.106 44.172)" fill="#fff"/>
</svg>
