<svg xmlns="http://www.w3.org/2000/svg" width="62.384" height="14.368" viewBox="0 0 62.384 14.368">
  <path id="menu_txt_hoken" d="M3.936-12.944A18.131,18.131,0,0,1,.56-6.08l.4,1.1A14.456,14.456,0,0,0,2.544-7.232V1.056h.928V-8.88a25.092,25.092,0,0,0,1.472-3.968ZM8.768-5.2A16.287,16.287,0,0,1,4.1-.352l.64.88A16.043,16.043,0,0,0,9.312-4.624v5.7h.928V-4.672A16.45,16.45,0,0,0,14.656.16l.736-.848a16.677,16.677,0,0,1-3.872-3.5c-.24-.336-.5-.672-.752-1.008h4.144v-.88H10.24V-7.9h3.744v-4.464H5.552V-7.9h3.76V-6.08H4.576v.88Zm-2.3-3.52v-2.832h6.592V-8.72ZM17.328.96h.928V-11.76h2.176a18.077,18.077,0,0,1-1.04,3.632,6.53,6.53,0,0,1,1.072,3.472c0,.608-.112.928-.352,1.056a2.3,2.3,0,0,1-1.04.112c-.112,0-.288,0-.592-.016L18.864-2.5a6.733,6.733,0,0,0,.7.048A1.712,1.712,0,0,0,20.944-2.9a2.458,2.458,0,0,0,.528-1.728A6.641,6.641,0,0,0,20.384-8.24a27.253,27.253,0,0,0,1.28-4.352H17.328ZM25.2-3.472c-.512,1.632-2,2.8-4.528,3.616l.608.912c2.736-1.04,4.208-2.3,4.736-4.016A9.644,9.644,0,0,0,30.528.752l.656-.768a9.94,9.94,0,0,1-4.512-3.456h3.184V-7.2h-3.52V-8.624h2.112V-9.44a12.759,12.759,0,0,0,2.32,1.552l.544-.8a12.679,12.679,0,0,1-4.88-4.208H25.2a10,10,0,0,1-4.288,4.4l.544.8a12.4,12.4,0,0,0,2.112-1.616v.688h1.888V-7.2h-3.28v3.728Zm-2.16-.816v-2.1h2.416a16.7,16.7,0,0,1-.112,2.1Zm.736-5.2a10.959,10.959,0,0,0,2.08-2.624,12.462,12.462,0,0,0,2.5,2.624Zm2.464,5.2a16.133,16.133,0,0,0,.112-2.1h2.624v2.1Zm6.784-5.3h5.264v-.88H33.024ZM33.408,1.1h.928V.368h3.552v-4.72h-4.48Zm.928-1.6V-3.52H36.96V-.5Zm-.72-7.072H37.68v-.864H33.616Zm.032,2.032H37.68V-6.4H33.648Zm.064-6.1h3.824V-12.5H33.712Zm7.968-1.28a8.585,8.585,0,0,1-3.9,4.608l.56.912A10.042,10.042,0,0,0,42.352-12a11.718,11.718,0,0,0,4.56,4.384l.464-.912a11.1,11.1,0,0,1-4.528-4.384ZM43.232-9.36a10.393,10.393,0,0,1-4.928,3.5l.576.944a12.911,12.911,0,0,0,5.152-3.84ZM44.784-7.1a13.342,13.342,0,0,1-6.32,4.08l.544.976A13.691,13.691,0,0,0,45.6-6.512Zm1.36,2.7A12.2,12.2,0,0,1,38.464.144l.608.96c3.68-.976,6.256-2.592,7.888-4.944ZM51.12-6.528A21.453,21.453,0,0,1,48.48-5.2l.288.992a17.442,17.442,0,0,0,2.352-1.44A8.5,8.5,0,0,1,49.088.16L49.7.992a9.647,9.647,0,0,0,2.352-6.416V-6.4l.368.736c.3-.112.3-.112,1.072-.432v3.12h3.28V-.432c0,.448-.08.528-.528.528-.256,0-1.1-.064-1.5-.1l.352.944c.784.032.928.032,1.248.032C57.44.976,57.7.784,57.7,0V-2.976H60.7V-6.448a11.958,11.958,0,0,0,1.792.672l.448-.72-.272-.1a16.7,16.7,0,0,1-2.208-.8,7.2,7.2,0,0,0,1.152-1.2l-.832-.4a6.448,6.448,0,0,1-1.04,1.216,5.818,5.818,0,0,1-1.92-1.456h4.832v-.736H57.408v-1.056h5.1v-.768H57.1v-1.472h-.976v1.472H51.12v3.536a27.618,27.618,0,0,0-1.408-2.512l-.752.64A23.72,23.72,0,0,1,50.384-7.52l.736-.608Zm.928-2.7h4.176A4.907,4.907,0,0,1,54.672-7.7l-1.1-1.216-.656.528L53.92-7.248a9.367,9.367,0,0,1-1.872.72Zm0-.736v-1.056H56.56v1.056ZM54.3-3.7V-4.88H59.84V-3.7Zm0-1.872v-.976H59.84v.976Zm1.088-1.7a6.664,6.664,0,0,0,1.7-1.92,6.086,6.086,0,0,0,2.08,1.92Zm-1.04,4.576A11.292,11.292,0,0,1,52.272.08l.8.544A13.979,13.979,0,0,0,55.248-2.4Zm4.9.512A18.3,18.3,0,0,0,61.712.336l.72-.64c-.72-.64-.768-.688-1.264-1.136A13.352,13.352,0,0,1,60-2.752Z" transform="translate(-0.56 13.264)" fill="#001e62"/>
</svg>
