<svg xmlns="http://www.w3.org/2000/svg" width="82.474" height="12.586" viewBox="0 0 82.474 12.586">
  <path id="menu_txt_kenkyu" d="M-39.032-9.968a11.394,11.394,0,0,1-2.45,5.32l.5.9a9.576,9.576,0,0,0,.966-1.4v5.1h.8V-1.05h2.8V-6.874h-2.7a13.1,13.1,0,0,0,.966-3.094h2v-.812h-4.816v.812Zm-.182,8.148v-4.3h2v4.3ZM-34.188-5.1A8.222,8.222,0,0,1-36.176.322l.63.574A9.271,9.271,0,0,0-33.334-5.1h2.142V.826h.854V-5.1h1.652v-.84h-1.652v-4.116h1.274v-.812h-6.608v.812h1.554v4.116h-1.89v.84Zm.882-.84v-4.116h2.114v4.116Zm6.58,6.72c3.29-.966,4.774-2.184,5.25-4.312h2.94V-.252a.821.821,0,0,0,.42.756,2.136,2.136,0,0,0,1.05.14c1.484,0,1.834-.112,2.016-.658a10.608,10.608,0,0,0,.14-2.31l-.84-.238a17.96,17.96,0,0,1-.056,1.848c-.056.448-.238.532-1.134.532-.686,0-.756-.028-.756-.364v-3.78H-21.35c.1-.966.112-1.134.154-1.722l-.868-.07a16.662,16.662,0,0,1-.14,1.792H-26.67v.8h4.34C-22.764-1.792-24.276-.7-27.314.07Zm.588-5.838a7.169,7.169,0,0,0,2.954-1.47c.714-.658.924-1.19,1.078-2.688h2.128v3.038a.75.75,0,0,0,.49.8,6,6,0,0,0,1.47.1c2.73,0,2.814-.042,2.912-1.652l.014-.2-.84-.182A2.618,2.618,0,0,1-16.1-6.23c-.14.126-.392.154-1.5.154-1.484,0-1.54-.014-1.54-.448V-9.212h2.926V-7.56h.882V-9.982h-5.222v-1.61h-.882v1.61h-5.152v2.8h.882v-2.03h2.786c-.126,1.946-1.05,2.772-3.85,3.444Zm13.37,1.89a15.8,15.8,0,0,0,2.716-1.218V.994h.84V.322h5.474V.966h.84V-5.5H-8.05A20.5,20.5,0,0,0-6.02-6.86H-.91v-.812H-5.138A17.1,17.1,0,0,0-2.492-10.71l-.826-.336a7.733,7.733,0,0,1-.574.868H-7.224v-1.414h-.854v1.414h-3.934v.8h3.934v1.708h-4.984v.812h5.838a28.39,28.39,0,0,1-6.1,2.87ZM-9.212-.448V-2.366h5.474V-.448Zm0-2.6v-1.68h5.474v1.68Zm1.988-4.62V-9.38h2.73A12.454,12.454,0,0,1-6.23-7.672ZM7.35-.07a7.421,7.421,0,0,0,3.514-1.106,4.4,4.4,0,0,0,1.862-3.836,5.188,5.188,0,0,0-1.288-3.542A5.039,5.039,0,0,0,7.5-10.136c-3.654,0-6.272,2.394-6.272,5.726,0,2.2,1.162,3.794,2.786,3.794,1.064,0,1.75-.728,2.422-2.632A27.216,27.216,0,0,0,7.756-9.3,4.11,4.11,0,0,1,10.5-8.218a4.069,4.069,0,0,1,1.26,3.15c0,2.534-1.484,3.794-4.8,4.1ZM6.818-9.254A26.257,26.257,0,0,1,6.062-5.11C5.4-2.646,4.76-1.526,4-1.526c-1.036,0-1.834-1.316-1.834-3.038A4.3,4.3,0,0,1,3.864-8.078,4.911,4.911,0,0,1,6.818-9.254Zm11.872.8C18.648-3.962,17.836-2.072,15.064,0l.672.714A9.133,9.133,0,0,0,19.488-6.02h5.236A31.985,31.985,0,0,1,24.192-1.3c-.154.574-.378.742-1.05.742a20.03,20.03,0,0,1-2.52-.252l.21.924a16.9,16.9,0,0,0,2.38.224c1.26,0,1.568-.266,1.862-1.6a36.08,36.08,0,0,0,.6-5.6H19.544c.042-.574.056-.9.07-1.6h7.21v-.882H21.28v-2.03h-.9v2.03H15.218v.882Zm22.3,6.762-.49-.49A56.008,56.008,0,0,1,35.21-8.022c-.6-.742-.9-.938-1.442-.938a1.492,1.492,0,0,0-1.19.6c-.14.168-.14.168-.938,1.33A26.5,26.5,0,0,1,29.162-3.78l.8.728c.574-.714.952-1.2,1.33-1.75l.98-1.428c.154-.238.308-.476.476-.7.042-.07.14-.21.238-.378.336-.532.462-.644.728-.644s.42.112.742.532A64.442,64.442,0,0,0,40.32-.882Z" transform="translate(41.482 11.592)" fill="#fff"/>
</svg>
