<svg xmlns="http://www.w3.org/2000/svg" width="60.016" height="14.448" viewBox="0 0 60.016 14.448">
  <path id="menu_txt_jihi" d="M2.928,1.008H3.936V.368H12.1V.992H13.1V-11.1H7.584c.288-.784.416-1.184.64-1.92L7.04-13.056A13.48,13.48,0,0,1,6.528-11.1h-3.6ZM3.936-.56V-3.488H12.1V-.56Zm0-3.808v-2.5H12.1v2.5Zm0-3.376v-2.432H12.1v2.432Zm16.912-.048a10.2,10.2,0,0,1-3.9,2.32l.544.784a12.278,12.278,0,0,0,1.856-.992v4.448h1.968a12.086,12.086,0,0,1-4.224,1.5l.7.912a13.841,13.841,0,0,0,4.544-1.9l-.592-.512h4.512l-.736.56A25.783,25.783,0,0,0,29.856.96l.88-.768a35.412,35.412,0,0,1-4.224-1.424h2.16V-5.824c1.5.032,1.68-.24,1.728-2.752H26.048v-.976h3.376v-2.56H26.048v-1.1h-.9v1.1h-2.4v-1.1h-.9v1.1h-4v.784H21.84c-.016.48-.032.544-.064,1.008h-3.44c-.176,1.248-.256,1.664-.432,2.528Zm-2-.784c.08-.416.1-.5.176-.976H21.7a3.788,3.788,0,0,1-.336.976Zm1.376,6.608V-2.8h7.552v.832Zm0-1.5v-.9h7.552v.9Zm0-1.568v-.848h7.552v.848Zm.464-1.584a6.762,6.762,0,0,0,1.184-1.168h3.28v1.168ZM22.3-8.576a4.884,4.884,0,0,0,.272-.976h2.576v.976Zm.368-1.744c.048-.464.048-.544.064-1.008h2.416v1.008Zm3.376,3.7V-7.792H29.44c-.032,1.056-.1,1.152-.768,1.168Zm0-3.7v-1.008H28.56v1.008Zm6.976.736h5.264v-.88H33.024ZM33.408,1.1h.928V.368h3.552v-4.72h-4.48Zm.928-1.6V-3.52H36.96V-.5Zm-.72-7.072H37.68v-.864H33.616Zm.032,2.032H37.68V-6.4H33.648Zm.064-6.1h3.824V-12.5H33.712Zm7.968-1.28a8.585,8.585,0,0,1-3.9,4.608l.56.912A10.042,10.042,0,0,0,42.352-12a11.718,11.718,0,0,0,4.56,4.384l.464-.912a11.1,11.1,0,0,1-4.528-4.384ZM43.232-9.36a10.393,10.393,0,0,1-4.928,3.5l.576.944a12.911,12.911,0,0,0,5.152-3.84ZM44.784-7.1a13.342,13.342,0,0,1-6.32,4.08l.544.976A13.691,13.691,0,0,0,45.6-6.512Zm1.36,2.7A12.2,12.2,0,0,1,38.464.144l.608.96c3.68-.976,6.256-2.592,7.888-4.944ZM51.12-6.528A21.453,21.453,0,0,1,48.48-5.2l.288.992a17.442,17.442,0,0,0,2.352-1.44A8.5,8.5,0,0,1,49.088.16L49.7.992a9.647,9.647,0,0,0,2.352-6.416V-6.4l.368.736c.3-.112.3-.112,1.072-.432v3.12h3.28V-.432c0,.448-.08.528-.528.528-.256,0-1.1-.064-1.5-.1l.352.944c.784.032.928.032,1.248.032C57.44.976,57.7.784,57.7,0V-2.976H60.7V-6.448a11.958,11.958,0,0,0,1.792.672l.448-.72-.272-.1a16.7,16.7,0,0,1-2.208-.8,7.2,7.2,0,0,0,1.152-1.2l-.832-.4a6.448,6.448,0,0,1-1.04,1.216,5.818,5.818,0,0,1-1.92-1.456h4.832v-.736H57.408v-1.056h5.1v-.768H57.1v-1.472h-.976v1.472H51.12v3.536a27.618,27.618,0,0,0-1.408-2.512l-.752.64A23.72,23.72,0,0,1,50.384-7.52l.736-.608Zm.928-2.7h4.176A4.907,4.907,0,0,1,54.672-7.7l-1.1-1.216-.656.528L53.92-7.248a9.367,9.367,0,0,1-1.872.72Zm0-.736v-1.056H56.56v1.056ZM54.3-3.7V-4.88H59.84V-3.7Zm0-1.872v-.976H59.84v.976Zm1.088-1.7a6.664,6.664,0,0,0,1.7-1.92,6.086,6.086,0,0,0,2.08,1.92Zm-1.04,4.576A11.292,11.292,0,0,1,52.272.08l.8.544A13.979,13.979,0,0,0,55.248-2.4Zm4.9.512A18.3,18.3,0,0,0,61.712.336l.72-.64c-.72-.64-.768-.688-1.264-1.136A13.352,13.352,0,0,1,60-2.752Z" transform="translate(-2.928 13.264)" fill="#001e62"/>
</svg>
