<svg xmlns="http://www.w3.org/2000/svg" width="95.354" height="12.614" viewBox="0 0 95.354 12.614">
  <path id="menu_txt_iryo" d="M-47.362.98h.868V.308h10.416V-.5H-46.494V-9.716h2.562A7.79,7.79,0,0,1-45.584-6.51l.714.434a11.582,11.582,0,0,0,.952-1.386h2.128a17.738,17.738,0,0,1-.07,1.9h-4v.77h3.85c-.364,1.372-1.848,2.618-3.934,3.3l.532.714c2.506-.994,3.836-2.254,4.172-3.92.546,1.5,2.044,2.8,4.326,3.752l.644-.728A8.039,8.039,0,0,1-40.53-4.788h4.074v-.77h-4.55c.028-.7.042-.966.042-1.9h3.71v-.77h-6.314a8.581,8.581,0,0,0,.49-1.484h6.888v-.8H-47.362ZM-32.27-5.712A18.771,18.771,0,0,1-34.58-4.55l.252.868a15.261,15.261,0,0,0,2.058-1.26A7.434,7.434,0,0,1-34.048.14l.532.728a8.441,8.441,0,0,0,2.058-5.614V-5.6l.322.644c.266-.1.266-.1.938-.378V-2.6h2.87V-.378c0,.392-.07.462-.462.462-.224,0-.966-.056-1.316-.084l.308.826c.686.028.812.028,1.092.028.966,0,1.19-.168,1.19-.854V-2.6h2.632V-5.642a10.463,10.463,0,0,0,1.568.588l.392-.63-.238-.084a14.613,14.613,0,0,1-1.932-.7,6.3,6.3,0,0,0,1.008-1.05l-.728-.35a5.642,5.642,0,0,1-.91,1.064A5.091,5.091,0,0,1-26.4-8.078h4.228v-.644h-4.592v-.924H-22.3v-.672h-4.732v-1.288h-.854v1.288H-32.27v3.094a24.166,24.166,0,0,0-1.232-2.2l-.658.56A20.755,20.755,0,0,1-32.914-6.58l.644-.532Zm.812-2.366H-27.8a4.294,4.294,0,0,1-1.358,1.344L-30.128-7.8l-.574.462.882.994a8.2,8.2,0,0,1-1.638.63Zm0-.644v-.924h3.948v.924Zm1.974,5.488V-4.27h4.844v1.036Zm0-1.638v-.854h4.844v.854Zm.952-1.484a5.831,5.831,0,0,0,1.484-1.68,5.325,5.325,0,0,0,1.82,1.68Zm-.91,4A9.881,9.881,0,0,1-31.262.07l.7.476a12.232,12.232,0,0,0,1.9-2.646Zm4.284.448A16.012,16.012,0,0,0-23,.294l.63-.56c-.63-.56-.672-.6-1.106-.994A11.683,11.683,0,0,1-24.5-2.408Zm5.11-.448A12.033,12.033,0,0,0-18.116-6.02V.924h.77V-5.824a11.554,11.554,0,0,0,1.3,2.016l.434-.84A13.054,13.054,0,0,1-17.346-7.14v-.9h1.106v-.8h-1.106v-2.674h-.77v2.674h-2.016v.8h1.946a13.177,13.177,0,0,1-2.45,4.886Zm3.01,2.73.518.574A4.369,4.369,0,0,0-14.672-2.24,15.848,15.848,0,0,1-12.586-.854l.406-.7A12.093,12.093,0,0,0-14.6-2.94v-.574h2.422A7.2,7.2,0,0,0-11.018-1.12,8.005,8.005,0,0,1-13.79.308l.518.7A13.059,13.059,0,0,0-10.556-.574,4.2,4.2,0,0,0-8.344.868c.462,0,.588-.378.756-2.282l-.7-.378c-.14,1.3-.224,1.75-.364,1.75A3.8,3.8,0,0,1-10.01-1.078,7.231,7.231,0,0,0-8.82-2.786l-.658-.266a7.42,7.42,0,0,1-.994,1.442A6.176,6.176,0,0,1-11.4-3.542h3.472V-4.27H-9.282a11.162,11.162,0,0,0-.49-1.19l.994-.1c.07.224.084.28.168.56l.672-.28c-.308-.854-.476-1.274-.728-1.82l-.616.238c.154.364.182.42.28.686l-1.316.112A31.8,31.8,0,0,0-8.442-9l-.7-.224A16.883,16.883,0,0,1-10-7.672a1.507,1.507,0,0,0-.112-.154c-.1-.112-.2-.238-.294-.364a1.251,1.251,0,0,1-.126-.168A25.182,25.182,0,0,0-9.17-10.906l-.77-.2A16.461,16.461,0,0,1-10.962-8.82l-.294-.28-.378.644a14.552,14.552,0,0,1,1.246,1.414c-.406.686-.434.742-.616,1.008l-.49.028.084.7.882-.084a9.56,9.56,0,0,1,.518,1.12h-1.61a55.967,55.967,0,0,1-.21-6.3v-.882h-.8v.98c0,1.6.028,2.954.1,4.382.014.266.028.406.028.434v.168c-.308-.728-.448-1.036-.714-1.568l-.574.28a5.46,5.46,0,0,1,.35.812l-1.442.112a29.94,29.94,0,0,0,1.764-2.94l-.7-.252c-.28.616-.42.9-.686,1.372l-.224-.294-.294-.392a18.9,18.9,0,0,0,1.386-2.548l-.7-.2a14.222,14.222,0,0,1-1.12,2.226L-15.75-9.2l-.364.7A9.548,9.548,0,0,1-14.9-6.972a10.64,10.64,0,0,1-.686,1.162l-.392-.014.14.77,2.618-.336.168.5.588-.238c.042.434.056.5.084.882h-3.318v.728h.336v.294c0,1.736-.6,3.024-1.68,3.584ZM-5.712.91h.84V-6.776H-.616v-4.256h-5.1Zm.84-8.442V-8.568h3.486v1.036Zm0-1.722V-10.3h3.486v1.05Zm.91,6.692h3.29C-1.078-1.47-1.988-.7-3.752.028l.6.686A5.928,5.928,0,0,0-.014-2.03,9.868,9.868,0,0,0,2.534.308l.532-.686A9.228,9.228,0,0,1,.518-2.562H4v-.756H.266V-4.382H3.71V-5.11H1.694a9.363,9.363,0,0,0,.784-1.232l-.924-.112a5.94,5.94,0,0,1-.7,1.344H-.9a8.412,8.412,0,0,0-.7-1.3l-.84.126c.364.616.448.77.658,1.176H-3.724v.728H-.546v1.064H-3.962ZM.406-6.776h4.48V-.518c0,.42-.154.56-.588.56-.2,0-.532-.028-1.218-.1l.252.882c.574.028.91.042,1.2.042A1.34,1.34,0,0,0,5.5.63c.182-.14.224-.294.224-.686V-11.032H.406Zm.756-.756V-8.568H4.886v1.036Zm0-1.722V-10.3H4.886v1.05ZM14.35-.07a7.421,7.421,0,0,0,3.514-1.106,4.4,4.4,0,0,0,1.862-3.836,5.188,5.188,0,0,0-1.288-3.542A5.039,5.039,0,0,0,14.5-10.136c-3.654,0-6.272,2.394-6.272,5.726,0,2.2,1.162,3.794,2.786,3.794,1.064,0,1.75-.728,2.422-2.632A27.216,27.216,0,0,0,14.756-9.3,4.11,4.11,0,0,1,17.5-8.218a4.069,4.069,0,0,1,1.26,3.15c0,2.534-1.484,3.794-4.8,4.1Zm-.532-9.184a26.257,26.257,0,0,1-.756,4.144C12.4-2.646,11.76-1.526,11-1.526c-1.036,0-1.834-1.316-1.834-3.038a4.3,4.3,0,0,1,1.694-3.514A4.911,4.911,0,0,1,13.818-9.254Zm11.872.8C25.648-3.962,24.836-2.072,22.064,0l.672.714A9.133,9.133,0,0,0,26.488-6.02h5.236A31.985,31.985,0,0,1,31.192-1.3c-.154.574-.378.742-1.05.742a20.03,20.03,0,0,1-2.52-.252l.21.924a16.9,16.9,0,0,0,2.38.224c1.26,0,1.568-.266,1.862-1.6a36.08,36.08,0,0,0,.6-5.6H26.544c.042-.574.056-.9.07-1.6h7.21v-.882H28.28v-2.03h-.9v2.03H22.218v.882Zm22.3,6.762-.49-.49A56.008,56.008,0,0,1,42.21-8.022c-.6-.742-.9-.938-1.442-.938a1.492,1.492,0,0,0-1.19.6c-.14.168-.14.168-.938,1.33A26.5,26.5,0,0,1,36.162-3.78l.8.728c.574-.714.952-1.2,1.33-1.75l.98-1.428c.154-.238.308-.476.476-.7.042-.07.14-.21.238-.378.336-.532.462-.644.728-.644s.42.112.742.532A64.442,64.442,0,0,0,47.32-.882Z" transform="translate(47.362 11.606)" fill="#fff"/>
</svg>
