<svg xmlns="http://www.w3.org/2000/svg" width="171.936" height="14.688" viewBox="0 0 171.936 14.688">
  <path id="menu_txt_about" d="M13.1-10.9a15.169,15.169,0,0,0-1.28-2.192l-.944.32a14.581,14.581,0,0,1,1.248,2.16Zm-.016-2.336a14.628,14.628,0,0,1,1.28,2.224l.976-.288a13.706,13.706,0,0,0-1.328-2.24Zm-7.36.432c-.144,1.2-.176,1.44-.464,3.008-1.248.144-1.392.16-3.392.448l.1,1.024c.592-.128,2.128-.384,3.1-.512a28.466,28.466,0,0,1-3.2,8.384L2.88.32A37.68,37.68,0,0,0,6.128-8.944a16.419,16.419,0,0,1,1.744-.1,1.818,1.818,0,0,1,1.392.416c.336.32.448.752.448,1.76a18.166,18.166,0,0,1-.624,4.912c-.208.672-.544.96-1.136.96A10.536,10.536,0,0,1,5.7-1.328L5.968-.176A12.413,12.413,0,0,0,8,.08c1.152,0,1.792-.512,2.144-1.792a21.092,21.092,0,0,0,.64-5.28C10.784-9.1,9.984-10,8.1-10c-.528,0-.672.016-1.792.1.208-.88.4-1.888.528-2.8Zm5.744,3.12a14.387,14.387,0,0,1,2.3,6.336L14.9-3.7A17.123,17.123,0,0,0,12.48-10.08Zm10.88-2.864-.3.72-.56,1.376c-1.12,2.656-1.76,4.288-2.928,7.44-.448,1.232-.784,2.144-.992,2.7L18.56.16A24.854,24.854,0,0,1,20.256-4c.784-1.36,2.032-2.352,2.976-2.352.576,0,.864.464.864,1.328,0,.32-.016.576-.1,1.776-.032.512-.048,1.024-.048,1.232A1.992,1.992,0,0,0,26.16.192a3.081,3.081,0,0,0,1.872-.64,4.584,4.584,0,0,0,1.6-2.464,12.249,12.249,0,0,0,.608-2.864c.016-.1.08-.432.128-.8l-1.056-.336c-.256,2.576-.512,3.744-1.024,4.624A2.709,2.709,0,0,1,26.176-.8c-.752,0-1.136-.416-1.136-1.232,0-.368.016-.688.048-1.52.016-.592.032-1.024.032-1.376,0-1.68-.576-2.448-1.824-2.448-1.008,0-1.616.384-2.688,1.68a55.236,55.236,0,0,1,2.832-6.432ZM33.328.64a33.268,33.268,0,0,0,2.736-2.1C37.376.4,38.48.752,42.672.7H44.64c.368,0,.848,0,2.24-.032l.368-1.024c-3.088.1-5.088.144-6.4.144A6.077,6.077,0,0,1,38.1-.656,3.676,3.676,0,0,1,36.48-2.144V-7.52H33.024v.912h2.5v4.5A23.622,23.622,0,0,1,32.96-.3Zm.384-12.7a21.7,21.7,0,0,1,2.5,2.288l.72-.7a15.431,15.431,0,0,0-2.512-2.272ZM36.88-8.48h9.888v-.736H42.224v-.72H45.9v-2.288h-3.68v-1.024h-.832v1.024H37.856v2.288h3.536v.72H36.88Zm1.76-2.128v-.928h2.752v.928Zm3.584,0v-.928h2.864v.928ZM38.512-.8a11.731,11.731,0,0,0,2.432-1.328l-.64-.608h2.88l-.5.512A15.628,15.628,0,0,0,45.92-.688l.656-.72a17.478,17.478,0,0,1-3.04-1.328h1.888v-5.12H38.16v5.12h2.1A9.61,9.61,0,0,1,37.824-1.52Zm.48-2.656v-.8h5.6v.8Zm0-1.472v-.864h5.6v.864Zm0-1.5v-.736h5.6v.736Zm13.264-6.656a16.539,16.539,0,0,1-3.632,6.864l.352,1.12a10.323,10.323,0,0,0,1.632-2.048V.816h.976V-8.7a18.927,18.927,0,0,0,1.648-4.256Zm.256,6.432H55.6a40.91,40.91,0,0,1-1.76,5.92c-.624.016-.72.016-1.328.016L52.864.32,53.6.256c3.408-.224,4.544-.32,7.968-.7.208.56.224.64.4,1.2L63.008.3a22.567,22.567,0,0,0-3.072-5.968l-.9.464a20.735,20.735,0,0,1,2.224,3.872c-1.392.208-4.656.5-6.512.56a47.78,47.78,0,0,0,1.92-5.888h6.352v-.96H52.512Zm1.04-4.448h8.576v-.96H53.552ZM65.184-5.536h6.448V-.96c0,.72-.016.72-1.088.72-.416,0-.656-.016-1.648-.064l.3,1.04c.9.064,1.36.1,1.776.1,1.376,0,1.664-.256,1.664-1.456V-5.536h6.208V-6.5H72.64v-1.52a42.159,42.159,0,0,0,5.008-3.232v-.832H66.512v.928h9.344a31.049,31.049,0,0,1-4.224,2.736V-6.5H65.184Zm17.808-3.6a12.513,12.513,0,0,1-2.64,5.248l.512,1.072a15.09,15.09,0,0,0,2.208-3.7V1.152h.88V-6.592a14.774,14.774,0,0,0,1.472,2.528l.48-1.024A15.05,15.05,0,0,1,83.952-8.08V-9.136h1.7v-.88h-1.7v-3.12h-.88v3.12H80.88v.88ZM85.568,1.12c2.7-.656,4.384-1.872,4.816-3.52,1.072,1.568,1.808,2.176,4.192,3.44L95.2.176a8.046,8.046,0,0,1-4.192-3.248h3.3v-4.08H90.7V-8.384h2.208V-9.12A14.107,14.107,0,0,0,94.88-7.744l.512-.96a11.6,11.6,0,0,1-4.72-4.32h-1.2A10.758,10.758,0,0,1,85.264-8.4l.608.832A12.748,12.748,0,0,0,87.648-9.04v.656h2.144v1.232h-3.52v4.08h3.376C89.232-1.376,88.064-.528,85.04.32ZM87.152-3.9V-6.288h2.64V-3.9ZM87.9-9.3A10.458,10.458,0,0,0,90.08-12.16,15.127,15.127,0,0,0,92.72-9.3ZM90.7-3.9V-6.288h2.688V-3.9Zm11.984-6.528a16.688,16.688,0,0,1-5.824,4.816l.624.8a24.382,24.382,0,0,0,2.448-1.648V-.4h-2.9V.464h13.984V-.4h-2.9V-6.656a18.352,18.352,0,0,0,2.544,1.536l.592-.8a17.66,17.66,0,0,1-6-4.512h5.52V-11.3h-6.256v-1.9h-.976v1.9H97.36v.864ZM100.864-.4V-1.952h6.3V-.4Zm0-2.368v-1.5h6.3v1.5Zm0-2.32V-6.432h6.3v1.344Zm2.688-2.176h-2.688a13.577,13.577,0,0,0,2.688-2.928Zm.976,0V-10.1a12.592,12.592,0,0,0,2.848,2.832Zm10.384-4.784a48.5,48.5,0,0,0-.56,7.408c0,1.392.048,2.832.144,4.592l1.152-.064c-.16-1.472-.256-3.44-.272-5.216V-5.5a43.852,43.852,0,0,1,.592-6.416Zm3.664,5.872a5.535,5.535,0,0,0-1.2,3.024A2.2,2.2,0,0,0,118.768-1.2a9.112,9.112,0,0,0,3.84.528c1.408,0,2.368-.048,3.616-.16l-.032-1.1a37.232,37.232,0,0,1-4.16.224c-2.528,0-3.584-.48-3.584-1.664a4.536,4.536,0,0,1,1.072-2.4Zm-.688-3.376c3.424-.048,4.3-.08,7.6-.208v-1.072c-.736.016-.832.032-1.216.048-.944.048-1.584.064-1.952.08-1.584.048-2.4.064-4.432.064Zm14.736,8.9c4-.16,5.712-.512,7.28-1.5a4.925,4.925,0,0,0,2.3-4.16A4.207,4.207,0,0,0,140-10.16a5.439,5.439,0,0,0-2.592-.576,26.167,26.167,0,0,0-5.056.672c-.4.08-1.248.256-1.872.368l-.864.16.256,1.184a32.024,32.024,0,0,1,7.184-1.328,5.565,5.565,0,0,1,2.24.368,3.3,3.3,0,0,1,1.84,3.04,3.77,3.77,0,0,1-.928,2.464A5.255,5.255,0,0,1,137.52-2.32c-1.28.368-2.1.448-5.312.544Zm13.792-10.736-.016.72-.032,1.456c-.048,1.664-.048,1.664-.048,2.256a11.8,11.8,0,0,0,.688,4.912c.512,1.12,1.248,1.888,1.808,1.888.864,0,1.824-1.264,3.408-4.5l-.736-.848c-1.312,2.624-2.24,4.016-2.656,4.016-.3,0-.64-.432-.928-1.216a12.532,12.532,0,0,1-.544-4.24c0-.9.1-2.736.208-4.336Zm7.728,1.424A11.543,11.543,0,0,1,157.1-2.1l1.216-.144a12.578,12.578,0,0,0-3.232-8.32Zm19.664-1.472c-.528.032-.928.064-1.1.08l-1.5.08c-.656.048-1.3.1-1.936.128l-.672.032c-1.072.064-1.968.1-2.848.144l-.992.048c-.56.016-.992.048-1.264.048-.72.032-.96.032-1.824.048l.032,1.12,1.44-.1,2.9-.176,1.9-.112.992-.064a8.428,8.428,0,0,0-2.256,1.872,5.286,5.286,0,0,0-1.28,3.392,4.19,4.19,0,0,0,1.808,3.52,6.928,6.928,0,0,0,4.3,1.024c.288,0,.752-.016,1.424-.048V-1.52a15.29,15.29,0,0,1-1.648.08,5.731,5.731,0,0,1-3.44-.784,3.166,3.166,0,0,1-1.376-2.768c0-1.744.992-3.248,2.88-4.4a7.468,7.468,0,0,1,4.464-.976Z" transform="translate(-1.872 13.536)" fill="#001e62"/>
</svg>
