<svg xmlns="http://www.w3.org/2000/svg" width="48.496" height="12.72" viewBox="0 0 48.496 12.72">
  <path id="menu_txt_home" d="M1.648,0H2.7V-5.792h7.04V0h1.072V-11.984H9.744v5.248H2.7v-5.248H1.648ZM18.9-12.352c-3.648,0-5.488,2.128-5.488,6.368a7.422,7.422,0,0,0,1.328,4.7A5.3,5.3,0,0,0,18.816.368a5.306,5.306,0,0,0,4.016-1.584,7.183,7.183,0,0,0,1.376-4.768,7.558,7.558,0,0,0-1.232-4.624A5.174,5.174,0,0,0,18.9-12.352Zm-.16.944c2.992,0,4.32,1.648,4.32,5.408,0,3.744-1.312,5.424-4.24,5.424-2.912,0-4.272-1.728-4.272-5.392C14.544-9.616,15.92-11.408,18.736-11.408ZM26.768,0h1.1V-10.72L32.08,0h1.152l4.256-10.832V0h1.04V-11.984H36.88L32.672-1.216,28.48-11.984H26.768ZM41.84,0h8.3V-.992H42.928v-4.88h6.416v-.96H42.928V-11.04h7.008v-.944h-8.1Z" transform="translate(-1.648 12.352)" fill="#001e62"/>
</svg>
